<svg width="96" height="92" viewBox="0 0 96 92" fill="none" xmlns="http://www.w3.org/2000/svg">
<path d="M30.071 0.942947C26.1612 1.58605 22.5949 4.36307 20.7899 8.16322C19.7229 10.4214 19.2333 12.6211 19.1675 15.4931C19.109 18.007 19.3867 20.141 20.0518 22.4357C21.4037 27.0762 24.6119 30.8764 28.4779 32.4111C30.7945 33.3245 33.1623 33.6899 35.6031 33.5219C38.1024 33.3465 40.0171 32.7399 41.1426 31.7826C42.0268 31.0298 42.9111 29.7656 43.3423 28.6474C43.7807 27.522 44.2119 25.5562 44.5188 23.3492C44.6504 22.4064 44.6504 18.2555 44.5188 17.1739C43.8611 11.7441 42.6772 8.34592 40.3898 5.33503C38.6652 3.06956 36.5458 1.65913 33.9808 1.05257C33.1769 0.862556 30.9479 0.796787 30.071 0.942947ZM32.7384 5.91236C33.9077 6.12429 34.8066 6.64316 35.7785 7.65166C37.8832 9.85136 39.0379 12.9719 39.5421 17.8243C39.7979 20.2433 39.6737 22.6549 39.1694 25.0665C38.8552 26.572 38.6213 27.1712 38.139 27.6974C37.6494 28.2309 36.8309 28.4428 35.0404 28.5159C33.6373 28.5671 32.6434 28.4428 31.3718 28.0555C29.6398 27.5293 28.339 26.6743 27.2574 25.3589C25.9347 23.7365 25.0723 21.851 24.5973 19.549C23.6254 14.7769 24.5096 10.4725 26.9578 8.01706C28.6752 6.30699 30.7433 5.55427 32.7384 5.91236Z" fill="#281E32"/>
<path d="M62.5549 0.877247C62.4965 0.891861 62.1968 0.943016 61.8972 0.986866C59.7706 1.33034 57.4905 2.63847 55.8974 4.42892C53.1788 7.48365 51.6953 11.313 51.0376 16.9182C50.8841 18.2848 50.8183 21.2738 50.9279 22.4504C51.1618 24.9935 51.688 27.4929 52.2872 28.9106C52.8646 30.2918 54.18 31.8119 55.2835 32.3892C56.5112 33.0323 57.9363 33.3831 59.9021 33.5219C62.4891 33.7046 65.1419 33.2515 67.4586 32.2357C70.3087 30.9788 72.8226 28.4356 74.3938 25.2128C76.5789 20.7403 77.0028 14.5285 75.4462 9.90258C73.9115 5.34972 70.316 2.00267 65.9166 1.02341C65.4123 0.913784 62.8692 0.79686 62.5549 0.877247ZM65.1492 5.99282C67.3709 6.56284 69.3075 8.30945 70.316 10.6407C72.0187 14.6016 71.4779 20.543 69.0809 24.2627C67.5097 26.689 65.4416 27.9971 62.4672 28.4356C61.0129 28.6475 58.8279 28.494 57.929 28.1067C57.5636 27.9533 57.1105 27.4709 56.9278 27.0471C56.4089 25.8851 55.9412 23.2177 55.8535 21.0107C55.7585 18.4602 56.2628 14.8135 57.0374 12.4165C58.0313 9.36179 59.8364 6.98671 61.7803 6.19014C62.723 5.81012 64.1188 5.72243 65.1492 5.99282Z" fill="#281E32"/>
<path d="M10.3395 24.4891C7.4163 24.9349 5.53084 25.8411 3.68193 27.69C2.68804 28.6839 2.0084 29.6486 1.35069 30.9859C-1.33865 36.4523 0.079099 43.7749 4.79274 48.7735C5.96201 50.0159 7.91324 51.6236 9.27983 52.4713C10.2299 53.056 12.0057 53.9037 12.9338 54.2106C14.41 54.7003 16.1493 54.9634 17.4648 54.8903C19.1675 54.8026 20.0372 54.5687 21.6449 53.7722C22.6899 53.2533 22.7411 53.2168 23.6254 52.3617C24.4585 51.5579 24.5681 51.4263 24.992 50.6444C25.6131 49.497 26.0589 48.3643 26.1905 47.5969C26.797 44.0964 26.2051 39.4632 24.6485 35.5169C23.4865 32.5718 21.9445 30.0944 20.1687 28.3185C18.2102 26.36 16.1055 25.1761 13.7011 24.6645C12.9923 24.5184 10.8876 24.4088 10.3395 24.4891ZM13.1165 29.6705C13.745 29.8386 14.9289 30.4378 15.5281 30.8909C18.5025 33.1199 20.8191 37.9066 21.338 42.8614C21.4841 44.3157 21.3818 46.4788 21.1187 47.48C21.0091 47.8673 20.5268 48.5543 20.0445 49.0074C19.2917 49.7089 17.5378 50.0378 15.9593 49.7674C14.1542 49.4532 12.203 48.4885 10.4491 47.0269C7.72323 44.7614 6.16664 42.4814 5.47969 39.7628C4.61735 36.3573 5.34814 33.0687 7.40168 31.1175C8.22748 30.3282 9.11905 29.8605 10.2664 29.5974C10.851 29.4586 12.5173 29.5024 13.1165 29.6705Z" fill="#281E32"/>
<path d="M82.6153 24.5257C81.1391 24.7158 79.3194 25.3662 78.0332 26.1847C76.9808 26.8424 76.2646 27.427 75.3292 28.3697C74.4523 29.2613 74.2111 29.539 73.5972 30.3867C71.1418 33.8142 69.3513 38.9444 69.1613 43.1172C69.1394 43.5995 69.1101 44.1184 69.1028 44.2792C69.059 44.7396 69.1978 46.7639 69.3148 47.502C69.4463 48.3205 69.6948 48.9782 70.3963 50.3521C70.8567 51.2437 71.0029 51.4556 71.5437 52.0256C72.3695 52.888 72.903 53.2972 73.7288 53.7065C75.3219 54.5103 76.4108 54.81 78.0405 54.8903C79.5459 54.9707 81.6579 54.6053 83.1999 53.9915C84.8003 53.3557 86.6931 52.2741 87.9501 51.2729C91.5237 48.4228 93.4676 45.7992 94.6661 42.1891C96.5004 36.6716 95.3384 31.0371 91.6333 27.4782C89.9086 25.8193 87.8478 24.8546 85.3338 24.5184C84.6688 24.4307 83.3461 24.4381 82.6153 24.5257ZM85.9185 29.7948C86.8612 30.1163 87.3654 30.416 88.0451 31.0591C88.732 31.7095 89.134 32.2722 89.5871 33.2222C90.2155 34.545 90.4421 35.7508 90.3763 37.417C90.2448 40.7933 88.6736 43.8919 85.86 46.3473C84.2669 47.7358 83.4776 48.2839 82.1183 48.927C79.9771 49.9502 78.1939 50.1256 76.3158 49.5044C75.8919 49.3655 75.7458 49.2705 75.3073 48.8247C75.0296 48.5397 74.708 48.1378 74.5984 47.9332C74.328 47.4362 74.1746 46.457 74.1234 44.9807C74.0138 41.4729 75.0515 37.6216 77.0174 34.2965C78.2743 32.1699 80.1452 30.4598 81.8918 29.8459C82.7395 29.5536 83.156 29.4879 84.1865 29.5171C85.0927 29.5317 85.2315 29.5609 85.9185 29.7948Z" fill="#281E32"/>
<path d="M47.1351 33.7146C44.8916 34.4893 43.0573 35.622 40.1852 38.0263C36.5093 41.0957 32.3876 45.7728 29.3256 50.3622C26.7751 54.1842 24.5608 58.3205 22.7703 62.6176C19.6279 70.1741 18.444 76.2981 19.2991 80.5075C19.7521 82.7145 20.8849 84.9215 22.573 86.8582C23.8592 88.3344 26.4243 90.0225 28.2952 90.6218C29.6106 91.0456 30.2537 91.1406 31.8249 91.1406C33.0526 91.1406 33.418 91.1114 34.105 90.9725C38.2925 90.1248 42.3411 87.6255 46.9159 83.0653C48.1363 81.8449 49.5394 80.6464 50.4675 80.0179C50.7087 79.8571 51.2933 79.499 51.7757 79.2286C52.8645 78.6148 53.6246 78.0886 54.4796 77.3797C58.4844 74.0181 61.7145 69.509 63.103 65.3581C64.1773 62.1572 63.863 59.1098 62.248 56.9466C61.1664 55.507 59.5367 54.3669 57.7317 53.7969C56.6939 53.4754 56.1385 53.3804 54.9839 53.3438C52.9303 53.2707 51.3956 53.6727 49.8756 54.6739C49.4444 54.9589 48.2532 56.0843 47.9536 56.4862L47.8001 56.6909L46.9378 55.8212C45.6735 54.5423 44.7527 53.9942 43.123 53.5558C42.4872 53.3877 42.2899 53.3657 40.9964 53.3657C39.8783 53.3584 39.4398 53.3877 38.9575 53.49C36.9624 53.9212 35.5081 54.6666 34.1854 55.9381C33.1842 56.9028 32.4972 57.999 32.1318 59.2414C31.3134 61.9818 31.9272 65.1827 33.9954 68.8806C35.7201 71.9791 37.8978 74.6392 40.8137 77.197C41.6176 77.9059 41.8661 78.3371 41.9245 79.1409C41.9757 79.8133 41.8661 80.3321 41.5226 81.0191C41.2668 81.538 41.1937 81.611 40.2656 82.3564C38.2267 83.9934 36.3485 85.0896 34.5581 85.6816C31.9199 86.5512 30.1148 86.3247 27.9078 84.8558C26.5924 83.9788 25.6058 82.8388 24.8823 81.3479C24.0931 79.7329 23.8958 78.2786 24.1515 75.867C24.4366 73.2142 25.1308 70.5687 26.5266 66.8051C28.2952 62.0695 30.6849 57.3705 33.418 53.2854C36.2389 49.0687 39.7833 44.9981 43.1157 42.148C45.0816 40.4599 47.3105 38.9252 47.7709 38.9252C48.0924 38.9252 49.5394 39.8533 51.0449 41.0226C55.415 44.4208 60.1652 49.9456 63.5926 55.6239C66.7497 60.8418 69.4975 67.2582 70.7398 72.2861C71.4341 75.085 71.646 77.9132 71.2952 79.521C70.8348 81.6257 69.4536 83.628 67.6339 84.8338C65.4196 86.3028 63.6365 86.5439 61.0714 85.7181C59.946 85.36 59.4636 84.8923 59.1275 83.8327C58.5209 81.9472 57.1032 80.6098 55.1739 80.1348C54.6623 80.0033 54.4138 79.9814 53.7123 80.0106C52.2507 80.0764 51.1472 80.566 50.0875 81.6403C49.6052 82.1226 49.4298 82.3638 49.1521 82.9265C48.9694 83.3065 48.7575 83.8254 48.6917 84.0884C48.5236 84.7388 48.5236 86.0835 48.699 86.7193C49.2179 88.6267 50.6356 90.0737 52.5065 90.6071C52.9669 90.7314 53.2811 90.7679 53.968 90.7679C54.9473 90.7679 55.2689 90.6948 56.4016 90.2125C57.3663 89.8033 57.6805 89.7887 58.499 90.1029C59.3979 90.4537 60.4648 90.7752 61.3856 90.9725C62.0434 91.1114 62.3722 91.1333 63.6876 91.1333C64.9958 91.1333 65.3246 91.1114 65.9312 90.9798C68.7301 90.3514 71.5291 88.6194 73.3195 86.4051C76.155 82.8972 76.9881 79.3748 76.2208 74.1131C75.3804 68.3617 72.1137 60.0745 67.9774 53.1757C64.3015 47.037 59.3833 41.2564 54.5527 37.3759C52.2945 35.5708 50.4895 34.4673 48.8744 33.9192C48.1582 33.6781 47.4786 33.5977 47.1351 33.7146ZM41.8514 57.8528C42.8088 58.189 43.3715 58.6713 44.7892 60.3595C45.732 61.4995 46.5066 62.2449 47.0036 62.508C47.3982 62.7272 48.0632 62.7346 48.4871 62.5299C48.9402 62.3107 49.8902 61.3972 50.7818 60.3083C52.1118 58.7006 52.8353 58.1013 53.778 57.8236C54.6038 57.5824 55.7804 57.7359 56.5405 58.189C57.0666 58.5106 57.3516 58.7809 57.8047 59.3875C58.5136 60.3522 58.7328 61.0391 58.6671 62.1499C58.5648 63.8308 56.767 67.324 54.6038 70.0571C53.9096 70.9268 51.5199 73.3238 50.7891 73.8719C49.934 74.515 49.1082 74.99 48.4213 75.2093L47.7855 75.4139L47.3324 75.2896C46.0535 74.9389 44.6577 73.9523 42.8161 72.1107C41.4057 70.6929 40.5579 69.6844 39.6444 68.3032C38.4752 66.542 37.8613 65.3654 37.2255 63.6627C36.882 62.7346 36.8747 62.6907 36.8747 61.8722C36.8674 60.8637 36.9697 60.5202 37.5032 59.7018C38.3948 58.3352 39.4325 57.7213 40.8722 57.714C41.2595 57.7067 41.5664 57.7505 41.8514 57.8528Z" fill="#281E32"/>
</svg>
