<svg width="526" height="71" viewBox="0 0 526 71" fill="none" xmlns="http://www.w3.org/2000/svg">
<path d="M94.7415 27.7273H100.81L107.219 43.3636H107.491L113.901 27.7273H119.969V51H115.196V35.8523H115.003L108.98 50.8864H105.73L99.7074 35.7955H99.5142V51H94.7415V27.7273ZM131.886 51.3409C130.091 51.3409 128.545 50.9773 127.25 50.25C125.962 49.5152 124.97 48.4773 124.273 47.1364C123.576 45.7879 123.227 44.1932 123.227 42.3523C123.227 40.5568 123.576 38.9811 124.273 37.625C124.97 36.2689 125.951 35.2121 127.216 34.4545C128.489 33.697 129.981 33.3182 131.693 33.3182C132.845 33.3182 133.917 33.5038 134.909 33.875C135.909 34.2386 136.78 34.7879 137.523 35.5227C138.273 36.2576 138.856 37.1818 139.273 38.2955C139.689 39.4015 139.898 40.697 139.898 42.1818V43.5114H125.159V40.5114H135.341C135.341 39.8144 135.189 39.197 134.886 38.6591C134.583 38.1212 134.163 37.7008 133.625 37.3977C133.095 37.0871 132.477 36.9318 131.773 36.9318C131.038 36.9318 130.386 37.1023 129.818 37.4432C129.258 37.7765 128.818 38.2273 128.5 38.7955C128.182 39.3561 128.019 39.9811 128.011 40.6705V43.5227C128.011 44.3864 128.17 45.1326 128.489 45.7614C128.814 46.3902 129.273 46.875 129.864 47.2159C130.455 47.5568 131.155 47.7273 131.966 47.7273C132.504 47.7273 132.996 47.6515 133.443 47.5C133.89 47.3485 134.273 47.1212 134.591 46.8182C134.909 46.5152 135.152 46.1439 135.318 45.7045L139.795 46C139.568 47.0758 139.102 48.0152 138.398 48.8182C137.701 49.6136 136.799 50.2348 135.693 50.6818C134.595 51.1212 133.326 51.3409 131.886 51.3409ZM129.841 31.2955L132.25 26.125H136.727L133.261 31.2955H129.841ZM149.489 51.2841C148.163 51.2841 146.962 50.9432 145.886 50.2614C144.818 49.572 143.97 48.5606 143.341 47.2273C142.72 45.8864 142.409 44.2424 142.409 42.2955C142.409 40.2955 142.731 38.6326 143.375 37.3068C144.019 35.9735 144.875 34.9773 145.943 34.3182C147.019 33.6515 148.197 33.3182 149.477 33.3182C150.455 33.3182 151.269 33.4848 151.92 33.8182C152.58 34.1439 153.11 34.553 153.511 35.0455C153.92 35.5303 154.231 36.0076 154.443 36.4773H154.591V27.7273H159.42V51H154.648V48.2045H154.443C154.216 48.6894 153.894 49.1705 153.477 49.6477C153.068 50.1174 152.534 50.5076 151.875 50.8182C151.223 51.1288 150.428 51.2841 149.489 51.2841ZM151.023 47.4318C151.803 47.4318 152.462 47.2197 153 46.7955C153.545 46.3636 153.962 45.7614 154.25 44.9886C154.545 44.2159 154.693 43.3106 154.693 42.2727C154.693 41.2348 154.549 40.3333 154.261 39.5682C153.973 38.803 153.557 38.2121 153.011 37.7955C152.466 37.3788 151.803 37.1705 151.023 37.1705C150.227 37.1705 149.557 37.3864 149.011 37.8182C148.466 38.25 148.053 38.8485 147.773 39.6136C147.492 40.3788 147.352 41.2652 147.352 42.2727C147.352 43.2879 147.492 44.1856 147.773 44.9659C148.061 45.7386 148.473 46.3447 149.011 46.7841C149.557 47.2159 150.227 47.4318 151.023 47.4318ZM163.401 51V33.5455H168.241V51H163.401ZM165.832 31.2955C165.113 31.2955 164.495 31.0568 163.98 30.5795C163.473 30.0947 163.219 29.5152 163.219 28.8409C163.219 28.1742 163.473 27.6023 163.98 27.125C164.495 26.6402 165.113 26.3977 165.832 26.3977C166.552 26.3977 167.166 26.6402 167.673 27.125C168.188 27.6023 168.446 28.1742 168.446 28.8409C168.446 29.5152 168.188 30.0947 167.673 30.5795C167.166 31.0568 166.552 31.2955 165.832 31.2955ZM177.097 51.3295C175.983 51.3295 174.991 51.1364 174.119 50.75C173.248 50.3561 172.559 49.7765 172.051 49.0114C171.551 48.2386 171.301 47.2765 171.301 46.125C171.301 45.1553 171.479 44.3409 171.835 43.6818C172.191 43.0227 172.676 42.4924 173.29 42.0909C173.903 41.6894 174.6 41.3864 175.381 41.1818C176.169 40.9773 176.994 40.8333 177.858 40.75C178.873 40.6439 179.691 40.5455 180.312 40.4545C180.934 40.3561 181.384 40.2121 181.665 40.0227C181.945 39.8333 182.085 39.553 182.085 39.1818V39.1136C182.085 38.3939 181.858 37.8371 181.403 37.4432C180.956 37.0492 180.32 36.8523 179.494 36.8523C178.623 36.8523 177.93 37.0455 177.415 37.4318C176.9 37.8106 176.559 38.2879 176.392 38.8636L171.915 38.5C172.142 37.4394 172.589 36.5227 173.256 35.75C173.922 34.9697 174.782 34.3712 175.835 33.9545C176.896 33.5303 178.123 33.3182 179.517 33.3182C180.487 33.3182 181.415 33.4318 182.301 33.6591C183.195 33.8864 183.987 34.2386 184.676 34.7159C185.373 35.1932 185.922 35.8068 186.324 36.5568C186.725 37.2992 186.926 38.1894 186.926 39.2273V51H182.335V48.5795H182.199C181.919 49.125 181.544 49.6061 181.074 50.0227C180.604 50.4318 180.04 50.7538 179.381 50.9886C178.722 51.2159 177.96 51.3295 177.097 51.3295ZM178.483 47.9886C179.195 47.9886 179.824 47.8485 180.369 47.5682C180.915 47.2803 181.343 46.8939 181.653 46.4091C181.964 45.9242 182.119 45.375 182.119 44.7614V42.9091C181.968 43.0076 181.759 43.0985 181.494 43.1818C181.237 43.2576 180.945 43.3295 180.619 43.3977C180.294 43.4583 179.968 43.5152 179.642 43.5682C179.316 43.6136 179.021 43.6553 178.756 43.6932C178.188 43.7765 177.691 43.9091 177.267 44.0909C176.843 44.2727 176.513 44.5189 176.278 44.8295C176.044 45.1326 175.926 45.5114 175.926 45.9659C175.926 46.625 176.165 47.1288 176.642 47.4773C177.127 47.8182 177.741 47.9886 178.483 47.9886ZM199.966 33.5455V37.1818H189.455V33.5455H199.966ZM191.841 29.3636H196.682V45.6364C196.682 46.0833 196.75 46.4318 196.886 46.6818C197.023 46.9242 197.212 47.0947 197.455 47.1932C197.705 47.2917 197.992 47.3409 198.318 47.3409C198.545 47.3409 198.773 47.322 199 47.2841C199.227 47.2386 199.402 47.2045 199.523 47.1818L200.284 50.7841C200.042 50.8598 199.701 50.947 199.261 51.0455C198.822 51.1515 198.288 51.2159 197.659 51.2386C196.492 51.2841 195.47 51.1288 194.591 50.7727C193.72 50.4167 193.042 49.8636 192.557 49.1136C192.072 48.3636 191.833 47.4167 191.841 46.2727V29.3636ZM203.119 51V33.5455H207.96V51H203.119ZM205.551 31.2955C204.831 31.2955 204.214 31.0568 203.699 30.5795C203.191 30.0947 202.938 29.5152 202.938 28.8409C202.938 28.1742 203.191 27.6023 203.699 27.125C204.214 26.6402 204.831 26.3977 205.551 26.3977C206.271 26.3977 206.884 26.6402 207.392 27.125C207.907 27.6023 208.165 28.1742 208.165 28.8409C208.165 29.5152 207.907 30.0947 207.392 30.5795C206.884 31.0568 206.271 31.2955 205.551 31.2955ZM219.724 51.3409C217.959 51.3409 216.433 50.9659 215.145 50.2159C213.865 49.4583 212.876 48.4053 212.179 47.0568C211.482 45.7008 211.134 44.1288 211.134 42.3409C211.134 40.5379 211.482 38.9621 212.179 37.6136C212.876 36.2576 213.865 35.2045 215.145 34.4545C216.433 33.697 217.959 33.3182 219.724 33.3182C221.49 33.3182 223.012 33.697 224.293 34.4545C225.58 35.2045 226.573 36.2576 227.27 37.6136C227.967 38.9621 228.315 40.5379 228.315 42.3409C228.315 44.1288 227.967 45.7008 227.27 47.0568C226.573 48.4053 225.58 49.4583 224.293 50.2159C223.012 50.9659 221.49 51.3409 219.724 51.3409ZM219.747 47.5909C220.55 47.5909 221.221 47.3636 221.759 46.9091C222.296 46.447 222.702 45.8182 222.974 45.0227C223.255 44.2273 223.395 43.322 223.395 42.3068C223.395 41.2917 223.255 40.3864 222.974 39.5909C222.702 38.7955 222.296 38.1667 221.759 37.7045C221.221 37.2424 220.55 37.0114 219.747 37.0114C218.937 37.0114 218.255 37.2424 217.702 37.7045C217.156 38.1667 216.743 38.7955 216.463 39.5909C216.19 40.3864 216.054 41.2917 216.054 42.3068C216.054 43.322 216.19 44.2273 216.463 45.0227C216.743 45.8182 217.156 46.447 217.702 46.9091C218.255 47.3636 218.937 47.5909 219.747 47.5909ZM236.304 40.9091V51H231.463V33.5455H236.077V36.625H236.281C236.668 35.6098 237.315 34.8068 238.224 34.2159C239.134 33.6174 240.236 33.3182 241.531 33.3182C242.743 33.3182 243.8 33.5833 244.702 34.1136C245.603 34.6439 246.304 35.4015 246.804 36.3864C247.304 37.3636 247.554 38.5303 247.554 39.8864V51H242.713V40.75C242.721 39.6818 242.448 38.8485 241.895 38.25C241.342 37.6439 240.58 37.3409 239.611 37.3409C238.959 37.3409 238.384 37.4811 237.884 37.7614C237.391 38.0417 237.005 38.4508 236.724 38.9886C236.452 39.5189 236.312 40.1591 236.304 40.9091ZM262.878 51H257.605L265.639 27.7273H271.98L280.003 51H274.73L268.901 33.0455H268.719L262.878 51ZM262.548 41.8523H275.003V45.6932H262.548V41.8523ZM287.554 40.9091V51H282.713V33.5455H287.327V36.625H287.531C287.918 35.6098 288.565 34.8068 289.474 34.2159C290.384 33.6174 291.486 33.3182 292.781 33.3182C293.993 33.3182 295.05 33.5833 295.952 34.1136C296.853 34.6439 297.554 35.4015 298.054 36.3864C298.554 37.3636 298.804 38.5303 298.804 39.8864V51H293.963V40.75C293.971 39.6818 293.698 38.8485 293.145 38.25C292.592 37.6439 291.83 37.3409 290.861 37.3409C290.209 37.3409 289.634 37.4811 289.134 37.7614C288.641 38.0417 288.255 38.4508 287.974 38.9886C287.702 39.5189 287.562 40.1591 287.554 40.9091ZM302.619 51V33.5455H307.46V51H302.619ZM305.051 31.2955C304.331 31.2955 303.714 31.0568 303.199 30.5795C302.691 30.0947 302.438 29.5152 302.438 28.8409C302.438 28.1742 302.691 27.6023 303.199 27.125C303.714 26.6402 304.331 26.3977 305.051 26.3977C305.771 26.3977 306.384 26.6402 306.892 27.125C307.407 27.6023 307.665 28.1742 307.665 28.8409C307.665 29.5152 307.407 30.0947 306.892 30.5795C306.384 31.0568 305.771 31.2955 305.051 31.2955ZM311.338 51V33.5455H315.952V36.625H316.156C316.52 35.6023 317.126 34.7955 317.974 34.2045C318.823 33.6136 319.838 33.3182 321.02 33.3182C322.217 33.3182 323.236 33.6174 324.077 34.2159C324.918 34.8068 325.478 35.6098 325.759 36.625H325.94C326.296 35.625 326.94 34.8258 327.872 34.2273C328.812 33.6212 329.921 33.3182 331.202 33.3182C332.83 33.3182 334.152 33.8371 335.168 34.875C336.19 35.9053 336.702 37.3674 336.702 39.2614V51H331.872V40.2159C331.872 39.2462 331.615 38.5189 331.099 38.0341C330.584 37.5492 329.94 37.3068 329.168 37.3068C328.289 37.3068 327.603 37.5871 327.111 38.1477C326.618 38.7008 326.372 39.4318 326.372 40.3409V51H321.679V40.1136C321.679 39.2576 321.433 38.5758 320.94 38.0682C320.455 37.5606 319.815 37.3068 319.02 37.3068C318.482 37.3068 317.997 37.4432 317.565 37.7159C317.141 37.9811 316.804 38.3561 316.554 38.8409C316.304 39.3182 316.179 39.8788 316.179 40.5227V51H311.338ZM345.503 51.3295C344.389 51.3295 343.397 51.1364 342.526 50.75C341.654 50.3561 340.965 49.7765 340.457 49.0114C339.957 48.2386 339.707 47.2765 339.707 46.125C339.707 45.1553 339.885 44.3409 340.241 43.6818C340.598 43.0227 341.082 42.4924 341.696 42.0909C342.31 41.6894 343.007 41.3864 343.787 41.1818C344.575 40.9773 345.401 40.8333 346.264 40.75C347.279 40.6439 348.098 40.5455 348.719 40.4545C349.34 40.3561 349.791 40.2121 350.071 40.0227C350.351 39.8333 350.491 39.553 350.491 39.1818V39.1136C350.491 38.3939 350.264 37.8371 349.81 37.4432C349.363 37.0492 348.726 36.8523 347.901 36.8523C347.029 36.8523 346.336 37.0455 345.821 37.4318C345.306 37.8106 344.965 38.2879 344.798 38.8636L340.321 38.5C340.548 37.4394 340.995 36.5227 341.662 35.75C342.329 34.9697 343.188 34.3712 344.241 33.9545C345.302 33.5303 346.529 33.3182 347.923 33.3182C348.893 33.3182 349.821 33.4318 350.707 33.6591C351.601 33.8864 352.393 34.2386 353.082 34.7159C353.779 35.1932 354.329 35.8068 354.73 36.5568C355.132 37.2992 355.332 38.1894 355.332 39.2273V51H350.741V48.5795H350.605C350.325 49.125 349.95 49.6061 349.48 50.0227C349.01 50.4318 348.446 50.7538 347.787 50.9886C347.128 51.2159 346.366 51.3295 345.503 51.3295ZM346.889 47.9886C347.601 47.9886 348.23 47.8485 348.776 47.5682C349.321 47.2803 349.749 46.8939 350.06 46.4091C350.37 45.9242 350.526 45.375 350.526 44.7614V42.9091C350.374 43.0076 350.166 43.0985 349.901 43.1818C349.643 43.2576 349.351 43.3295 349.026 43.3977C348.7 43.4583 348.374 43.5152 348.048 43.5682C347.723 43.6136 347.427 43.6553 347.162 43.6932C346.594 43.7765 346.098 43.9091 345.673 44.0909C345.249 44.2727 344.92 44.5189 344.685 44.8295C344.45 45.1326 344.332 45.5114 344.332 45.9659C344.332 46.625 344.571 47.1288 345.048 47.4773C345.533 47.8182 346.147 47.9886 346.889 47.9886ZM363.929 27.7273V51H359.088V27.7273H363.929ZM375.304 51V27.7273H380.224V37.3295H390.213V27.7273H395.122V51H390.213V41.3864H380.224V51H375.304ZM404.065 51.3295C402.952 51.3295 401.959 51.1364 401.088 50.75C400.217 50.3561 399.527 49.7765 399.02 49.0114C398.52 48.2386 398.27 47.2765 398.27 46.125C398.27 45.1553 398.448 44.3409 398.804 43.6818C399.16 43.0227 399.645 42.4924 400.259 42.0909C400.872 41.6894 401.569 41.3864 402.349 41.1818C403.137 40.9773 403.963 40.8333 404.827 40.75C405.842 40.6439 406.66 40.5455 407.281 40.4545C407.902 40.3561 408.353 40.2121 408.634 40.0227C408.914 39.8333 409.054 39.553 409.054 39.1818V39.1136C409.054 38.3939 408.827 37.8371 408.372 37.4432C407.925 37.0492 407.289 36.8523 406.463 36.8523C405.592 36.8523 404.899 37.0455 404.384 37.4318C403.868 37.8106 403.527 38.2879 403.361 38.8636L398.884 38.5C399.111 37.4394 399.558 36.5227 400.224 35.75C400.891 34.9697 401.751 34.3712 402.804 33.9545C403.865 33.5303 405.092 33.3182 406.486 33.3182C407.455 33.3182 408.384 33.4318 409.27 33.6591C410.164 33.8864 410.955 34.2386 411.645 34.7159C412.342 35.1932 412.891 35.8068 413.293 36.5568C413.694 37.2992 413.895 38.1894 413.895 39.2273V51H409.304V48.5795H409.168C408.887 49.125 408.512 49.6061 408.043 50.0227C407.573 50.4318 407.009 50.7538 406.349 50.9886C405.69 51.2159 404.929 51.3295 404.065 51.3295ZM405.452 47.9886C406.164 47.9886 406.793 47.8485 407.338 47.5682C407.884 47.2803 408.312 46.8939 408.622 46.4091C408.933 45.9242 409.088 45.375 409.088 44.7614V42.9091C408.937 43.0076 408.728 43.0985 408.463 43.1818C408.205 43.2576 407.914 43.3295 407.588 43.3977C407.262 43.4583 406.937 43.5152 406.611 43.5682C406.285 43.6136 405.99 43.6553 405.724 43.6932C405.156 43.7765 404.66 43.9091 404.236 44.0909C403.812 44.2727 403.482 44.5189 403.247 44.8295C403.012 45.1326 402.895 45.5114 402.895 45.9659C402.895 46.625 403.134 47.1288 403.611 47.4773C404.096 47.8182 404.709 47.9886 405.452 47.9886ZM422.491 40.9091V51H417.651V33.5455H422.264V36.625H422.469C422.855 35.6098 423.503 34.8068 424.412 34.2159C425.321 33.6174 426.423 33.3182 427.719 33.3182C428.931 33.3182 429.988 33.5833 430.889 34.1136C431.791 34.6439 432.491 35.4015 432.991 36.3864C433.491 37.3636 433.741 38.5303 433.741 39.8864V51H428.901V40.75C428.908 39.6818 428.635 38.8485 428.082 38.25C427.529 37.6439 426.768 37.3409 425.798 37.3409C425.147 37.3409 424.571 37.4811 424.071 37.7614C423.579 38.0417 423.192 38.4508 422.912 38.9886C422.639 39.5189 422.499 40.1591 422.491 40.9091ZM443.989 51.2841C442.663 51.2841 441.462 50.9432 440.386 50.2614C439.318 49.572 438.47 48.5606 437.841 47.2273C437.22 45.8864 436.909 44.2424 436.909 42.2955C436.909 40.2955 437.231 38.6326 437.875 37.3068C438.519 35.9735 439.375 34.9773 440.443 34.3182C441.519 33.6515 442.697 33.3182 443.977 33.3182C444.955 33.3182 445.769 33.4848 446.42 33.8182C447.08 34.1439 447.61 34.553 448.011 35.0455C448.42 35.5303 448.731 36.0076 448.943 36.4773H449.091V27.7273H453.92V51H449.148V48.2045H448.943C448.716 48.6894 448.394 49.1705 447.977 49.6477C447.568 50.1174 447.034 50.5076 446.375 50.8182C445.723 51.1288 444.928 51.2841 443.989 51.2841ZM445.523 47.4318C446.303 47.4318 446.962 47.2197 447.5 46.7955C448.045 46.3636 448.462 45.7614 448.75 44.9886C449.045 44.2159 449.193 43.3106 449.193 42.2727C449.193 41.2348 449.049 40.3333 448.761 39.5682C448.473 38.803 448.057 38.2121 447.511 37.7955C446.966 37.3788 446.303 37.1705 445.523 37.1705C444.727 37.1705 444.057 37.3864 443.511 37.8182C442.966 38.25 442.553 38.8485 442.273 39.6136C441.992 40.3788 441.852 41.2652 441.852 42.2727C441.852 43.2879 441.992 44.1856 442.273 44.9659C442.561 45.7386 442.973 46.3447 443.511 46.7841C444.057 47.2159 444.727 47.4318 445.523 47.4318ZM457.901 51V33.5455H462.741V51H457.901ZM460.332 31.2955C459.613 31.2955 458.995 31.0568 458.48 30.5795C457.973 30.0947 457.719 29.5152 457.719 28.8409C457.719 28.1742 457.973 27.6023 458.48 27.125C458.995 26.6402 459.613 26.3977 460.332 26.3977C461.052 26.3977 461.666 26.6402 462.173 27.125C462.688 27.6023 462.946 28.1742 462.946 28.8409C462.946 29.5152 462.688 30.0947 462.173 30.5795C461.666 31.0568 461.052 31.2955 460.332 31.2955ZM474.506 51.3409C472.718 51.3409 471.18 50.9621 469.892 50.2045C468.612 49.4394 467.627 48.3788 466.938 47.0227C466.256 45.6667 465.915 44.1061 465.915 42.3409C465.915 40.553 466.259 38.9848 466.949 37.6364C467.646 36.2803 468.634 35.2235 469.915 34.4659C471.195 33.7008 472.718 33.3182 474.483 33.3182C476.006 33.3182 477.339 33.5947 478.483 34.1477C479.627 34.7008 480.532 35.4773 481.199 36.4773C481.866 37.4773 482.233 38.6515 482.301 40H477.733C477.604 39.1288 477.263 38.428 476.71 37.8977C476.165 37.3598 475.449 37.0909 474.562 37.0909C473.812 37.0909 473.157 37.2955 472.597 37.7045C472.044 38.1061 471.612 38.6932 471.301 39.4659C470.991 40.2386 470.835 41.1742 470.835 42.2727C470.835 43.3864 470.987 44.3333 471.29 45.1136C471.6 45.8939 472.036 46.4886 472.597 46.8977C473.157 47.3068 473.812 47.5114 474.562 47.5114C475.116 47.5114 475.612 47.3977 476.051 47.1705C476.498 46.9432 476.866 46.6136 477.153 46.1818C477.449 45.7424 477.642 45.2159 477.733 44.6023H482.301C482.225 45.9356 481.862 47.1098 481.21 48.125C480.566 49.1326 479.676 49.9205 478.54 50.4886C477.403 51.0568 476.059 51.3409 474.506 51.3409ZM490.378 51.3295C489.264 51.3295 488.272 51.1364 487.401 50.75C486.529 50.3561 485.84 49.7765 485.332 49.0114C484.832 48.2386 484.582 47.2765 484.582 46.125C484.582 45.1553 484.76 44.3409 485.116 43.6818C485.473 43.0227 485.957 42.4924 486.571 42.0909C487.185 41.6894 487.882 41.3864 488.662 41.1818C489.45 40.9773 490.276 40.8333 491.139 40.75C492.154 40.6439 492.973 40.5455 493.594 40.4545C494.215 40.3561 494.666 40.2121 494.946 40.0227C495.226 39.8333 495.366 39.553 495.366 39.1818V39.1136C495.366 38.3939 495.139 37.8371 494.685 37.4432C494.238 37.0492 493.601 36.8523 492.776 36.8523C491.904 36.8523 491.211 37.0455 490.696 37.4318C490.181 37.8106 489.84 38.2879 489.673 38.8636L485.196 38.5C485.423 37.4394 485.87 36.5227 486.537 35.75C487.204 34.9697 488.063 34.3712 489.116 33.9545C490.177 33.5303 491.404 33.3182 492.798 33.3182C493.768 33.3182 494.696 33.4318 495.582 33.6591C496.476 33.8864 497.268 34.2386 497.957 34.7159C498.654 35.1932 499.204 35.8068 499.605 36.5568C500.007 37.2992 500.207 38.1894 500.207 39.2273V51H495.616V48.5795H495.48C495.2 49.125 494.825 49.6061 494.355 50.0227C493.885 50.4318 493.321 50.7538 492.662 50.9886C492.003 51.2159 491.241 51.3295 490.378 51.3295ZM491.764 47.9886C492.476 47.9886 493.105 47.8485 493.651 47.5682C494.196 47.2803 494.624 46.8939 494.935 46.4091C495.245 45.9242 495.401 45.375 495.401 44.7614V42.9091C495.249 43.0076 495.041 43.0985 494.776 43.1818C494.518 43.2576 494.226 43.3295 493.901 43.3977C493.575 43.4583 493.249 43.5152 492.923 43.5682C492.598 43.6136 492.302 43.6553 492.037 43.6932C491.469 43.7765 490.973 43.9091 490.548 44.0909C490.124 44.2727 489.795 44.5189 489.56 44.8295C489.325 45.1326 489.207 45.5114 489.207 45.9659C489.207 46.625 489.446 47.1288 489.923 47.4773C490.408 47.8182 491.022 47.9886 491.764 47.9886ZM503.963 57.5455V33.5455H508.736V36.4773H508.952C509.164 36.0076 509.471 35.5303 509.872 35.0455C510.281 34.553 510.812 34.1439 511.463 33.8182C512.122 33.4848 512.94 33.3182 513.918 33.3182C515.19 33.3182 516.365 33.6515 517.44 34.3182C518.516 34.9773 519.376 35.9735 520.02 37.3068C520.664 38.6326 520.986 40.2955 520.986 42.2955C520.986 44.2424 520.671 45.8864 520.043 47.2273C519.421 48.5606 518.573 49.572 517.497 50.2614C516.429 50.9432 515.232 51.2841 513.906 51.2841C512.967 51.2841 512.168 51.1288 511.509 50.8182C510.857 50.5076 510.323 50.1174 509.906 49.6477C509.49 49.1705 509.171 48.6894 508.952 48.2045H508.804V57.5455H503.963ZM508.702 42.2727C508.702 43.3106 508.846 44.2159 509.134 44.9886C509.421 45.7614 509.838 46.3636 510.384 46.7955C510.929 47.2197 511.592 47.4318 512.372 47.4318C513.16 47.4318 513.827 47.2159 514.372 46.7841C514.918 46.3447 515.33 45.7386 515.611 44.9659C515.899 44.1856 516.043 43.2879 516.043 42.2727C516.043 41.2652 515.902 40.3788 515.622 39.6136C515.342 38.8485 514.929 38.25 514.384 37.8182C513.838 37.3864 513.168 37.1705 512.372 37.1705C511.584 37.1705 510.918 37.3788 510.372 37.7955C509.834 38.2121 509.421 38.803 509.134 39.5682C508.846 40.3333 508.702 41.2348 508.702 42.2727Z" fill="#F1FFFA"/>
<path d="M22.3514 0.07234C19.4454 0.577965 16.7946 2.76134 15.4529 5.74911C14.6598 7.52454 14.2959 9.25401 14.247 11.5121C14.2036 13.4886 14.41 15.1664 14.9043 16.9705C15.9092 20.619 18.2938 23.6068 21.1673 24.8134C22.8892 25.5316 24.6491 25.8189 26.4634 25.6868C28.3211 25.5489 29.7443 25.072 30.5808 24.3193C31.238 23.7275 31.8953 22.7335 32.2158 21.8544C32.5417 20.9695 32.8622 19.4239 33.0903 17.6887C33.1881 16.9475 33.1881 13.684 33.0903 12.8336C32.6014 8.56452 31.7215 5.89276 30.0213 3.52552C28.7394 1.74435 27.1641 0.635422 25.2575 0.158525C24.66 0.00913811 23.0033 -0.0425739 22.3514 0.07234ZM24.3341 3.97943C25.2032 4.14606 25.8713 4.554 26.5937 5.34691C28.1581 7.07638 29.0164 9.5298 29.3912 13.345C29.5813 15.2468 29.489 17.1429 29.1142 19.039C28.8806 20.2226 28.7068 20.6937 28.3483 21.1074C27.9843 21.5269 27.3759 21.6935 26.0451 21.751C25.0022 21.7912 24.2635 21.6935 23.3183 21.389C22.0309 20.9753 21.0641 20.303 20.2601 19.2688C19.277 17.9933 18.636 16.5109 18.2829 14.701C17.5605 10.949 18.2177 7.56476 20.0374 5.6342C21.3139 4.2897 22.8512 3.69789 24.3341 3.97943Z" fill="#F1FFFA"/>
<path d="M46.4962 0.0206871C46.4527 0.032177 46.23 0.0723972 46.0073 0.106873C44.4266 0.376921 42.7319 1.40541 41.5477 2.81311C39.527 5.21482 38.4244 8.22558 37.9355 12.6325C37.8214 13.707 37.7725 16.057 37.854 16.9821C38.0278 18.9816 38.4189 20.9466 38.8644 22.0613C39.2935 23.1472 40.2712 24.3423 41.0914 24.7962C42.004 25.3019 43.0632 25.5777 44.5244 25.6868C46.4473 25.8305 48.4191 25.4742 50.141 24.6756C52.2594 23.6873 54.128 21.6878 55.2959 19.1539C56.92 15.6376 57.2351 10.7537 56.0781 7.11665C54.9374 3.53707 52.2649 0.905527 48.9949 0.135601C48.6201 0.0494156 46.7298 -0.0425167 46.4962 0.0206871ZM48.4245 4.04269C50.0758 4.49086 51.5153 5.86409 52.2649 7.69697C53.5305 10.8112 53.1285 15.4824 51.3469 18.407C50.179 20.3146 48.6418 21.3431 46.431 21.6878C45.3501 21.8544 43.7259 21.7338 43.0578 21.4292C42.7862 21.3086 42.4494 20.9294 42.3136 20.5961C41.928 19.6825 41.5803 17.5854 41.5151 15.8502C41.4445 13.8449 41.8193 10.9778 42.3951 9.09318C43.1338 6.69147 44.4755 4.82411 45.9204 4.19783C46.6211 3.89905 47.6586 3.8301 48.4245 4.04269Z" fill="#F1FFFA"/>
<path d="M7.68519 18.5849C5.51243 18.9354 4.111 19.6479 2.73672 21.1015C1.99798 21.8829 1.49282 22.6414 1.00395 23.6928C-0.994997 27.9906 0.0587932 33.7479 3.56237 37.6779C4.43148 38.6547 5.8818 39.9188 6.89757 40.5853C7.60371 41.0449 8.92367 41.7114 9.61352 41.9527C10.7108 42.3377 12.0036 42.5446 12.9813 42.4871C14.2469 42.4182 14.8933 42.2343 16.0884 41.608C16.8651 41.2001 16.9031 41.1713 17.5604 40.4991C18.1796 39.8671 18.2611 39.7636 18.5762 39.1488C19.0379 38.2468 19.3692 37.3562 19.467 36.7529C19.9179 34.0007 19.4779 30.3579 18.3209 27.2552C17.4572 24.9397 16.3111 22.9919 14.9911 21.5957C13.5354 20.0558 11.971 19.125 10.1839 18.7228C9.65698 18.6079 8.09259 18.5217 7.68519 18.5849ZM9.74932 22.6586C10.2165 22.7908 11.0964 23.2619 11.5418 23.6181C13.7526 25.3706 15.4746 29.134 15.8602 33.0296C15.9689 34.173 15.8928 35.8738 15.6973 36.6609C15.6158 36.9655 15.2573 37.5056 14.8988 37.8618C14.3393 38.4134 13.0356 38.6719 11.8623 38.4593C10.5207 38.2123 9.07033 37.4538 7.76667 36.3047C5.74057 34.5235 4.58357 32.7309 4.07297 30.5935C3.43201 27.9159 3.9752 25.3304 5.50157 23.7963C6.11537 23.1757 6.77806 22.808 7.63087 22.6012C8.06543 22.492 9.3039 22.5265 9.74932 22.6586Z" fill="#F1FFFA"/>
<path d="M61.4069 18.6141C60.3097 18.7635 58.9571 19.2749 58.0011 19.9184C57.2189 20.4355 56.6866 20.8952 55.9913 21.6364C55.3395 22.3374 55.1602 22.5557 54.7039 23.2222C52.8788 25.917 51.548 29.9504 51.4068 33.2313C51.3905 33.6105 51.3688 34.0184 51.3633 34.1448C51.3307 34.5068 51.4339 36.0984 51.5208 36.6787C51.6186 37.3222 51.8033 37.8393 52.3248 38.9195C52.667 39.6205 52.7756 39.7871 53.1776 40.2353C53.7914 40.9133 54.1879 41.235 54.8017 41.5568C55.9859 42.1888 56.7952 42.4244 58.0065 42.4876C59.1255 42.5508 60.6953 42.2635 61.8415 41.7809C63.0311 41.281 64.4379 40.4306 65.3722 39.6435C68.0284 37.4026 69.4733 35.3399 70.3641 32.5015C71.7276 28.1635 70.8639 23.7336 68.1099 20.9354C66.828 19.6311 65.2962 18.8727 63.4276 18.6084C62.9333 18.5394 61.9501 18.5452 61.4069 18.6141ZM63.8621 22.7568C64.5629 23.0096 64.9377 23.2452 65.4428 23.7508C65.9534 24.2622 66.2522 24.7046 66.589 25.4515C67.0561 26.4915 67.2245 27.4396 67.1756 28.7496C67.0778 31.4041 65.91 33.8403 63.8187 35.7709C62.6345 36.8626 62.0479 37.2935 61.0376 37.7991C59.446 38.6035 58.1206 38.7414 56.7246 38.253C56.4096 38.1438 56.3009 38.0692 55.975 37.7187C55.7686 37.4946 55.5296 37.1786 55.4481 37.0177C55.2471 36.627 55.1331 35.857 55.095 34.6964C55.0136 31.9385 55.7849 28.9105 57.2461 26.2962C58.1804 24.6242 59.5709 23.2797 60.8692 22.797C61.4993 22.5672 61.8089 22.5155 62.5748 22.5385C63.2483 22.55 63.3515 22.5729 63.8621 22.7568Z" fill="#F1FFFA"/>
<path d="M35.0347 25.85C33.3672 26.459 32.0037 27.3496 29.869 29.24C27.1368 31.6532 24.0732 35.3304 21.7972 38.9387C19.9015 41.9438 18.2556 45.1958 16.9248 48.5743C14.589 54.5154 13.7091 59.3303 14.3446 62.6399C14.6814 64.3751 15.5233 66.1103 16.7781 67.6329C17.7341 68.7935 19.6407 70.1208 21.0313 70.5919C22.009 70.9252 22.487 70.9999 23.6549 70.9999C24.5675 70.9999 24.8391 70.9769 25.3497 70.8677C28.4621 70.2012 31.4714 68.2362 34.8718 64.6509C35.7789 63.6913 36.8218 62.749 37.5117 62.2549C37.691 62.1285 38.1255 61.8469 38.484 61.6343C39.2934 61.1517 39.8583 60.738 40.4938 60.1807C43.4705 57.5376 45.8714 53.9925 46.9035 50.729C47.702 48.2123 47.4684 45.8164 46.2679 44.1156C45.464 42.9837 44.2527 42.0874 42.911 41.6392C42.1397 41.3864 41.7269 41.3117 40.8686 41.283C39.3423 41.2255 38.2016 41.5416 37.0717 42.3287C36.7512 42.5528 35.8658 43.4376 35.6431 43.7537L35.5291 43.9145L34.8881 43.2308C33.9484 42.2253 33.2639 41.7944 32.0526 41.4496C31.5801 41.3175 31.4334 41.3002 30.4719 41.3002C29.6409 41.2945 29.3149 41.3175 28.9564 41.3979C27.4735 41.7369 26.3926 42.323 25.4094 43.3227C24.6652 44.0812 24.1546 44.943 23.883 45.9198C23.2747 48.0744 23.7309 50.5911 25.2682 53.4984C26.5501 55.9346 28.1688 58.026 30.3361 60.037C30.9337 60.5944 31.1183 60.9334 31.1618 61.5654C31.1998 62.094 31.1183 62.502 30.863 63.0421C30.6729 63.45 30.6186 63.5075 29.9288 64.0935C28.4133 65.3806 27.0173 66.2424 25.6864 66.7078C23.7255 67.3916 22.3838 67.2134 20.7434 66.0586C19.7657 65.3691 19.0323 64.4727 18.4946 63.3006C17.9079 62.0308 17.7613 60.8874 17.9514 58.9913C18.1632 56.9056 18.6793 54.8257 19.7168 51.8666C21.0313 48.1434 22.8075 44.4489 24.8391 41.237C26.9358 37.9218 29.5702 34.7214 32.0472 32.4806C33.5084 31.1533 35.1651 29.9467 35.5073 29.9467C35.7463 29.9467 36.8218 30.6764 37.9408 31.5957C41.1891 34.2675 44.7198 38.6112 47.2674 43.0757C49.614 47.1781 51.6564 52.2229 52.5798 56.1759C53.0958 58.3765 53.2534 60.6001 52.9926 61.8642C52.6504 63.5189 51.6238 65.0933 50.2713 66.0413C48.6254 67.1962 47.3 67.3858 45.3934 66.7366C44.5569 66.455 44.1984 66.0873 43.9485 65.2542C43.4977 63.7718 42.4439 62.7203 41.0098 62.3468C40.6296 62.2434 40.4449 62.2262 39.9235 62.2491C38.8371 62.3009 38.0169 62.6858 37.2292 63.5304C36.8707 63.9097 36.7404 64.0993 36.534 64.5417C36.3982 64.8405 36.2406 65.2484 36.1917 65.4553C36.0668 65.9666 36.0668 67.0238 36.1972 67.5237C36.5828 69.0233 37.6366 70.161 39.0272 70.5804C39.3694 70.6781 39.603 70.7068 40.1136 70.7068C40.8415 70.7068 41.0805 70.6494 41.9224 70.2702C42.6394 69.9484 42.873 69.9369 43.4814 70.184C44.1495 70.4598 44.9425 70.7126 45.627 70.8677C46.1158 70.9769 46.3603 70.9941 47.338 70.9941C48.3103 70.9941 48.5548 70.9769 49.0056 70.8735C51.086 70.3793 53.1665 69.0176 54.4973 67.2766C56.6049 64.5187 57.2241 61.7493 56.6537 57.6123C56.0291 53.0905 53.601 46.5748 50.5266 41.1508C47.7943 36.3244 44.1386 31.7796 40.5481 28.7286C38.8697 27.3094 37.528 26.4418 36.3275 26.0109C35.7952 25.8213 35.29 25.7581 35.0347 25.85ZM31.1075 44.8281C31.8191 45.0924 32.2373 45.4716 33.2911 46.7989C33.9918 47.6952 34.5676 48.2813 34.937 48.4881C35.2303 48.6605 35.7246 48.6663 36.0397 48.5054C36.3764 48.333 37.0826 47.6148 37.7453 46.7587C38.7339 45.4946 39.2716 45.0235 39.9724 44.8051C40.5862 44.6155 41.4607 44.7362 42.0256 45.0924C42.4167 45.3452 42.6286 45.5578 42.9653 46.0347C43.4922 46.7931 43.6552 47.3332 43.6063 48.2066C43.5303 49.5281 42.194 52.2746 40.5862 54.4235C40.0701 55.1072 38.2939 56.9918 37.7507 57.4227C37.1152 57.9284 36.5014 58.3018 35.9908 58.4742L35.5182 58.6351L35.1814 58.5374C34.2308 58.2616 33.1933 57.4859 31.8245 56.038C30.7761 54.9233 30.146 54.1304 29.467 53.0445C28.5979 51.6598 28.1417 50.7347 27.6691 49.396C27.4138 48.6663 27.4083 48.6318 27.4083 47.9883C27.4029 47.1953 27.479 46.9253 27.8755 46.2818C28.5382 45.2073 29.3095 44.7247 30.3796 44.7189C30.6675 44.7132 30.8956 44.7477 31.1075 44.8281Z" fill="#F1FFFA"/>
</svg>
