<svg width="576" height="71" viewBox="0 0 576 71" fill="none" xmlns="http://www.w3.org/2000/svg">
<path d="M109.898 27.7273H115.966L122.375 43.3636H122.648L129.057 27.7273H135.125V51H130.353V35.8523H130.159L124.137 50.8864H120.887L114.864 35.7955H114.671V51H109.898V27.7273ZM147.043 51.3409C145.248 51.3409 143.702 50.9773 142.407 50.25C141.119 49.5152 140.126 48.4773 139.429 47.1364C138.732 45.7879 138.384 44.1932 138.384 42.3523C138.384 40.5568 138.732 38.9811 139.429 37.625C140.126 36.2689 141.107 35.2121 142.373 34.4545C143.645 33.697 145.138 33.3182 146.85 33.3182C148.001 33.3182 149.073 33.5038 150.066 33.875C151.066 34.2386 151.937 34.7879 152.679 35.5227C153.429 36.2576 154.013 37.1818 154.429 38.2955C154.846 39.4015 155.054 40.697 155.054 42.1818V43.5114H140.316V40.5114H150.498C150.498 39.8144 150.346 39.197 150.043 38.6591C149.74 38.1212 149.32 37.7008 148.782 37.3977C148.251 37.0871 147.634 36.9318 146.929 36.9318C146.195 36.9318 145.543 37.1023 144.975 37.4432C144.414 37.7765 143.975 38.2273 143.657 38.7955C143.338 39.3561 143.176 39.9811 143.168 40.6705V43.5227C143.168 44.3864 143.327 45.1326 143.645 45.7614C143.971 46.3902 144.429 46.875 145.02 47.2159C145.611 47.5568 146.312 47.7273 147.123 47.7273C147.66 47.7273 148.153 47.6515 148.6 47.5C149.047 47.3485 149.429 47.1212 149.748 46.8182C150.066 46.5152 150.308 46.1439 150.475 45.7045L154.952 46C154.725 47.0758 154.259 48.0152 153.554 48.8182C152.857 49.6136 151.956 50.2348 150.85 50.6818C149.751 51.1212 148.482 51.3409 147.043 51.3409ZM144.998 31.2955L147.407 26.125H151.884L148.418 31.2955H144.998ZM164.645 51.2841C163.32 51.2841 162.119 50.9432 161.043 50.2614C159.975 49.572 159.126 48.5606 158.498 47.2273C157.876 45.8864 157.566 44.2424 157.566 42.2955C157.566 40.2955 157.888 38.6326 158.532 37.3068C159.176 35.9735 160.032 34.9773 161.1 34.3182C162.176 33.6515 163.354 33.3182 164.634 33.3182C165.611 33.3182 166.426 33.4848 167.077 33.8182C167.736 34.1439 168.266 34.553 168.668 35.0455C169.077 35.5303 169.388 36.0076 169.6 36.4773H169.748V27.7273H174.577V51H169.804V48.2045H169.6C169.373 48.6894 169.051 49.1705 168.634 49.6477C168.225 50.1174 167.691 50.5076 167.032 50.8182C166.38 51.1288 165.585 51.2841 164.645 51.2841ZM166.179 47.4318C166.96 47.4318 167.619 47.2197 168.157 46.7955C168.702 46.3636 169.119 45.7614 169.407 44.9886C169.702 44.2159 169.85 43.3106 169.85 42.2727C169.85 41.2348 169.706 40.3333 169.418 39.5682C169.13 38.803 168.713 38.2121 168.168 37.7955C167.623 37.3788 166.96 37.1705 166.179 37.1705C165.384 37.1705 164.713 37.3864 164.168 37.8182C163.623 38.25 163.21 38.8485 162.929 39.6136C162.649 40.3788 162.509 41.2652 162.509 42.2727C162.509 43.2879 162.649 44.1856 162.929 44.9659C163.217 45.7386 163.63 46.3447 164.168 46.7841C164.713 47.2159 165.384 47.4318 166.179 47.4318ZM178.557 51V33.5455H183.398V51H178.557ZM180.989 31.2955C180.269 31.2955 179.652 31.0568 179.137 30.5795C178.629 30.0947 178.375 29.5152 178.375 28.8409C178.375 28.1742 178.629 27.6023 179.137 27.125C179.652 26.6402 180.269 26.3977 180.989 26.3977C181.709 26.3977 182.322 26.6402 182.83 27.125C183.345 27.6023 183.603 28.1742 183.603 28.8409C183.603 29.5152 183.345 30.0947 182.83 30.5795C182.322 31.0568 181.709 31.2955 180.989 31.2955ZM192.253 51.3295C191.14 51.3295 190.147 51.1364 189.276 50.75C188.405 50.3561 187.715 49.7765 187.208 49.0114C186.708 48.2386 186.458 47.2765 186.458 46.125C186.458 45.1553 186.636 44.3409 186.992 43.6818C187.348 43.0227 187.833 42.4924 188.446 42.0909C189.06 41.6894 189.757 41.3864 190.537 41.1818C191.325 40.9773 192.151 40.8333 193.015 40.75C194.03 40.6439 194.848 40.5455 195.469 40.4545C196.09 40.3561 196.541 40.2121 196.821 40.0227C197.102 39.8333 197.242 39.553 197.242 39.1818V39.1136C197.242 38.3939 197.015 37.8371 196.56 37.4432C196.113 37.0492 195.477 36.8523 194.651 36.8523C193.78 36.8523 193.087 37.0455 192.571 37.4318C192.056 37.8106 191.715 38.2879 191.549 38.8636L187.071 38.5C187.299 37.4394 187.746 36.5227 188.412 35.75C189.079 34.9697 189.939 34.3712 190.992 33.9545C192.052 33.5303 193.28 33.3182 194.674 33.3182C195.643 33.3182 196.571 33.4318 197.458 33.6591C198.352 33.8864 199.143 34.2386 199.833 34.7159C200.53 35.1932 201.079 35.8068 201.481 36.5568C201.882 37.2992 202.083 38.1894 202.083 39.2273V51H197.492V48.5795H197.356C197.075 49.125 196.7 49.6061 196.231 50.0227C195.761 50.4318 195.196 50.7538 194.537 50.9886C193.878 51.2159 193.117 51.3295 192.253 51.3295ZM193.64 47.9886C194.352 47.9886 194.981 47.8485 195.526 47.5682C196.071 47.2803 196.499 46.8939 196.81 46.4091C197.121 45.9242 197.276 45.375 197.276 44.7614V42.9091C197.124 43.0076 196.916 43.0985 196.651 43.1818C196.393 43.2576 196.102 43.3295 195.776 43.3977C195.45 43.4583 195.124 43.5152 194.799 43.5682C194.473 43.6136 194.177 43.6553 193.912 43.6932C193.344 43.7765 192.848 43.9091 192.424 44.0909C191.999 44.2727 191.67 44.5189 191.435 44.8295C191.2 45.1326 191.083 45.5114 191.083 45.9659C191.083 46.625 191.321 47.1288 191.799 47.4773C192.284 47.8182 192.897 47.9886 193.64 47.9886ZM215.123 33.5455V37.1818H204.611V33.5455H215.123ZM206.998 29.3636H211.838V45.6364C211.838 46.0833 211.907 46.4318 212.043 46.6818C212.179 46.9242 212.369 47.0947 212.611 47.1932C212.861 47.2917 213.149 47.3409 213.475 47.3409C213.702 47.3409 213.929 47.322 214.157 47.2841C214.384 47.2386 214.558 47.2045 214.679 47.1818L215.441 50.7841C215.198 50.8598 214.857 50.947 214.418 51.0455C213.979 51.1515 213.445 51.2159 212.816 51.2386C211.649 51.2841 210.626 51.1288 209.748 50.7727C208.876 50.4167 208.198 49.8636 207.713 49.1136C207.229 48.3636 206.99 47.4167 206.998 46.2727V29.3636ZM218.276 51V33.5455H223.117V51H218.276ZM220.708 31.2955C219.988 31.2955 219.371 31.0568 218.856 30.5795C218.348 30.0947 218.094 29.5152 218.094 28.8409C218.094 28.1742 218.348 27.6023 218.856 27.125C219.371 26.6402 219.988 26.3977 220.708 26.3977C221.427 26.3977 222.041 26.6402 222.549 27.125C223.064 27.6023 223.321 28.1742 223.321 28.8409C223.321 29.5152 223.064 30.0947 222.549 30.5795C222.041 31.0568 221.427 31.2955 220.708 31.2955ZM234.881 51.3409C233.116 51.3409 231.589 50.9659 230.302 50.2159C229.021 49.4583 228.033 48.4053 227.336 47.0568C226.639 45.7008 226.29 44.1288 226.29 42.3409C226.29 40.5379 226.639 38.9621 227.336 37.6136C228.033 36.2576 229.021 35.2045 230.302 34.4545C231.589 33.697 233.116 33.3182 234.881 33.3182C236.646 33.3182 238.169 33.697 239.449 34.4545C240.737 35.2045 241.73 36.2576 242.427 37.6136C243.124 38.9621 243.472 40.5379 243.472 42.3409C243.472 44.1288 243.124 45.7008 242.427 47.0568C241.73 48.4053 240.737 49.4583 239.449 50.2159C238.169 50.9659 236.646 51.3409 234.881 51.3409ZM234.904 47.5909C235.707 47.5909 236.377 47.3636 236.915 46.9091C237.453 46.447 237.858 45.8182 238.131 45.0227C238.411 44.2273 238.552 43.322 238.552 42.3068C238.552 41.2917 238.411 40.3864 238.131 39.5909C237.858 38.7955 237.453 38.1667 236.915 37.7045C236.377 37.2424 235.707 37.0114 234.904 37.0114C234.093 37.0114 233.411 37.2424 232.858 37.7045C232.313 38.1667 231.9 38.7955 231.62 39.5909C231.347 40.3864 231.211 41.2917 231.211 42.3068C231.211 43.322 231.347 44.2273 231.62 45.0227C231.9 45.8182 232.313 46.447 232.858 46.9091C233.411 47.3636 234.093 47.5909 234.904 47.5909ZM251.461 40.9091V51H246.62V33.5455H251.233V36.625H251.438C251.824 35.6098 252.472 34.8068 253.381 34.2159C254.29 33.6174 255.392 33.3182 256.688 33.3182C257.9 33.3182 258.957 33.5833 259.858 34.1136C260.76 34.6439 261.461 35.4015 261.961 36.3864C262.461 37.3636 262.711 38.5303 262.711 39.8864V51H257.87V40.75C257.877 39.6818 257.605 38.8485 257.052 38.25C256.499 37.6439 255.737 37.3409 254.767 37.3409C254.116 37.3409 253.54 37.4811 253.04 37.7614C252.548 38.0417 252.161 38.4508 251.881 38.9886C251.608 39.5189 251.468 40.1591 251.461 40.9091ZM278.034 51H272.762L280.796 27.7273H287.137L295.159 51H289.887L284.057 33.0455H283.875L278.034 51ZM277.705 41.8523H290.159V45.6932H277.705V41.8523ZM302.711 40.9091V51H297.87V33.5455H302.483V36.625H302.688C303.074 35.6098 303.722 34.8068 304.631 34.2159C305.54 33.6174 306.642 33.3182 307.938 33.3182C309.15 33.3182 310.207 33.5833 311.108 34.1136C312.01 34.6439 312.711 35.4015 313.211 36.3864C313.711 37.3636 313.961 38.5303 313.961 39.8864V51H309.12V40.75C309.127 39.6818 308.855 38.8485 308.302 38.25C307.749 37.6439 306.987 37.3409 306.017 37.3409C305.366 37.3409 304.79 37.4811 304.29 37.7614C303.798 38.0417 303.411 38.4508 303.131 38.9886C302.858 39.5189 302.718 40.1591 302.711 40.9091ZM317.776 51V33.5455H322.617V51H317.776ZM320.208 31.2955C319.488 31.2955 318.871 31.0568 318.356 30.5795C317.848 30.0947 317.594 29.5152 317.594 28.8409C317.594 28.1742 317.848 27.6023 318.356 27.125C318.871 26.6402 319.488 26.3977 320.208 26.3977C320.927 26.3977 321.541 26.6402 322.049 27.125C322.564 27.6023 322.821 28.1742 322.821 28.8409C322.821 29.5152 322.564 30.0947 322.049 30.5795C321.541 31.0568 320.927 31.2955 320.208 31.2955ZM326.495 51V33.5455H331.108V36.625H331.313C331.677 35.6023 332.283 34.7955 333.131 34.2045C333.98 33.6136 334.995 33.3182 336.177 33.3182C337.374 33.3182 338.392 33.6174 339.233 34.2159C340.074 34.8068 340.635 35.6098 340.915 36.625H341.097C341.453 35.625 342.097 34.8258 343.029 34.2273C343.968 33.6212 345.078 33.3182 346.358 33.3182C347.987 33.3182 349.309 33.8371 350.324 34.875C351.347 35.9053 351.858 37.3674 351.858 39.2614V51H347.029V40.2159C347.029 39.2462 346.771 38.5189 346.256 38.0341C345.741 37.5492 345.097 37.3068 344.324 37.3068C343.445 37.3068 342.76 37.5871 342.267 38.1477C341.775 38.7008 341.529 39.4318 341.529 40.3409V51H336.836V40.1136C336.836 39.2576 336.589 38.5758 336.097 38.0682C335.612 37.5606 334.972 37.3068 334.177 37.3068C333.639 37.3068 333.154 37.4432 332.722 37.7159C332.298 37.9811 331.961 38.3561 331.711 38.8409C331.461 39.3182 331.336 39.8788 331.336 40.5227V51H326.495ZM360.659 51.3295C359.546 51.3295 358.553 51.1364 357.682 50.75C356.811 50.3561 356.122 49.7765 355.614 49.0114C355.114 48.2386 354.864 47.2765 354.864 46.125C354.864 45.1553 355.042 44.3409 355.398 43.6818C355.754 43.0227 356.239 42.4924 356.853 42.0909C357.466 41.6894 358.163 41.3864 358.944 41.1818C359.731 40.9773 360.557 40.8333 361.421 40.75C362.436 40.6439 363.254 40.5455 363.875 40.4545C364.497 40.3561 364.947 40.2121 365.228 40.0227C365.508 39.8333 365.648 39.553 365.648 39.1818V39.1136C365.648 38.3939 365.421 37.8371 364.966 37.4432C364.519 37.0492 363.883 36.8523 363.057 36.8523C362.186 36.8523 361.493 37.0455 360.978 37.4318C360.463 37.8106 360.122 38.2879 359.955 38.8636L355.478 38.5C355.705 37.4394 356.152 36.5227 356.819 35.75C357.485 34.9697 358.345 34.3712 359.398 33.9545C360.459 33.5303 361.686 33.3182 363.08 33.3182C364.05 33.3182 364.978 33.4318 365.864 33.6591C366.758 33.8864 367.55 34.2386 368.239 34.7159C368.936 35.1932 369.485 35.8068 369.887 36.5568C370.288 37.2992 370.489 38.1894 370.489 39.2273V51H365.898V48.5795H365.762C365.481 49.125 365.106 49.6061 364.637 50.0227C364.167 50.4318 363.603 50.7538 362.944 50.9886C362.284 51.2159 361.523 51.3295 360.659 51.3295ZM362.046 47.9886C362.758 47.9886 363.387 47.8485 363.932 47.5682C364.478 47.2803 364.906 46.8939 365.216 46.4091C365.527 45.9242 365.682 45.375 365.682 44.7614V42.9091C365.531 43.0076 365.322 43.0985 365.057 43.1818C364.8 43.2576 364.508 43.3295 364.182 43.3977C363.856 43.4583 363.531 43.5152 363.205 43.5682C362.879 43.6136 362.584 43.6553 362.319 43.6932C361.75 43.7765 361.254 43.9091 360.83 44.0909C360.406 44.2727 360.076 44.5189 359.841 44.8295C359.606 45.1326 359.489 45.5114 359.489 45.9659C359.489 46.625 359.728 47.1288 360.205 47.4773C360.69 47.8182 361.303 47.9886 362.046 47.9886ZM379.086 27.7273V51H374.245V27.7273H379.086ZM390.918 51.3409C389.123 51.3409 387.577 50.9773 386.282 50.25C384.994 49.5152 384.001 48.4773 383.304 47.1364C382.607 45.7879 382.259 44.1932 382.259 42.3523C382.259 40.5568 382.607 38.9811 383.304 37.625C384.001 36.2689 384.982 35.2121 386.248 34.4545C387.52 33.697 389.013 33.3182 390.725 33.3182C391.876 33.3182 392.948 33.5038 393.941 33.875C394.941 34.2386 395.812 34.7879 396.554 35.5227C397.304 36.2576 397.888 37.1818 398.304 38.2955C398.721 39.4015 398.929 40.697 398.929 42.1818V43.5114H384.191V40.5114H394.373C394.373 39.8144 394.221 39.197 393.918 38.6591C393.615 38.1212 393.195 37.7008 392.657 37.3977C392.126 37.0871 391.509 36.9318 390.804 36.9318C390.07 36.9318 389.418 37.1023 388.85 37.4432C388.289 37.7765 387.85 38.2273 387.532 38.7955C387.213 39.3561 387.051 39.9811 387.043 40.6705V43.5227C387.043 44.3864 387.202 45.1326 387.52 45.7614C387.846 46.3902 388.304 46.875 388.895 47.2159C389.486 47.5568 390.187 47.7273 390.998 47.7273C391.535 47.7273 392.028 47.6515 392.475 47.5C392.922 47.3485 393.304 47.1212 393.623 46.8182C393.941 46.5152 394.183 46.1439 394.35 45.7045L398.827 46C398.6 47.0758 398.134 48.0152 397.429 48.8182C396.732 49.6136 395.831 50.2348 394.725 50.6818C393.626 51.1212 392.357 51.3409 390.918 51.3409ZM409.586 51V27.7273H414.506V37.3295H424.495V27.7273H429.404V51H424.495V41.3864H414.506V51H409.586ZM438.347 51.3295C437.233 51.3295 436.241 51.1364 435.37 50.75C434.499 50.3561 433.809 49.7765 433.302 49.0114C432.802 48.2386 432.552 47.2765 432.552 46.125C432.552 45.1553 432.73 44.3409 433.086 43.6818C433.442 43.0227 433.927 42.4924 434.54 42.0909C435.154 41.6894 435.851 41.3864 436.631 41.1818C437.419 40.9773 438.245 40.8333 439.108 40.75C440.124 40.6439 440.942 40.5455 441.563 40.4545C442.184 40.3561 442.635 40.2121 442.915 40.0227C443.195 39.8333 443.336 39.553 443.336 39.1818V39.1136C443.336 38.3939 443.108 37.8371 442.654 37.4432C442.207 37.0492 441.57 36.8523 440.745 36.8523C439.874 36.8523 439.18 37.0455 438.665 37.4318C438.15 37.8106 437.809 38.2879 437.642 38.8636L433.165 38.5C433.392 37.4394 433.839 36.5227 434.506 35.75C435.173 34.9697 436.033 34.3712 437.086 33.9545C438.146 33.5303 439.374 33.3182 440.767 33.3182C441.737 33.3182 442.665 33.4318 443.552 33.6591C444.445 33.8864 445.237 34.2386 445.927 34.7159C446.624 35.1932 447.173 35.8068 447.574 36.5568C447.976 37.2992 448.177 38.1894 448.177 39.2273V51H443.586V48.5795H443.449C443.169 49.125 442.794 49.6061 442.324 50.0227C441.855 50.4318 441.29 50.7538 440.631 50.9886C439.972 51.2159 439.211 51.3295 438.347 51.3295ZM439.733 47.9886C440.445 47.9886 441.074 47.8485 441.62 47.5682C442.165 47.2803 442.593 46.8939 442.904 46.4091C443.214 45.9242 443.37 45.375 443.37 44.7614V42.9091C443.218 43.0076 443.01 43.0985 442.745 43.1818C442.487 43.2576 442.195 43.3295 441.87 43.3977C441.544 43.4583 441.218 43.5152 440.892 43.5682C440.567 43.6136 440.271 43.6553 440.006 43.6932C439.438 43.7765 438.942 43.9091 438.517 44.0909C438.093 44.2727 437.764 44.5189 437.529 44.8295C437.294 45.1326 437.177 45.5114 437.177 45.9659C437.177 46.625 437.415 47.1288 437.892 47.4773C438.377 47.8182 438.991 47.9886 439.733 47.9886ZM456.773 40.9091V51H451.932V33.5455H456.546V36.625H456.75C457.137 35.6098 457.784 34.8068 458.694 34.2159C459.603 33.6174 460.705 33.3182 462 33.3182C463.213 33.3182 464.269 33.5833 465.171 34.1136C466.072 34.6439 466.773 35.4015 467.273 36.3864C467.773 37.3636 468.023 38.5303 468.023 39.8864V51H463.182V40.75C463.19 39.6818 462.917 38.8485 462.364 38.25C461.811 37.6439 461.05 37.3409 460.08 37.3409C459.428 37.3409 458.853 37.4811 458.353 37.7614C457.86 38.0417 457.474 38.4508 457.194 38.9886C456.921 39.5189 456.781 40.1591 456.773 40.9091ZM478.27 51.2841C476.945 51.2841 475.744 50.9432 474.668 50.2614C473.6 49.572 472.751 48.5606 472.123 47.2273C471.501 45.8864 471.191 44.2424 471.191 42.2955C471.191 40.2955 471.513 38.6326 472.157 37.3068C472.801 35.9735 473.657 34.9773 474.725 34.3182C475.801 33.6515 476.979 33.3182 478.259 33.3182C479.236 33.3182 480.051 33.4848 480.702 33.8182C481.361 34.1439 481.891 34.553 482.293 35.0455C482.702 35.5303 483.013 36.0076 483.225 36.4773H483.373V27.7273H488.202V51H483.429V48.2045H483.225C482.998 48.6894 482.676 49.1705 482.259 49.6477C481.85 50.1174 481.316 50.5076 480.657 50.8182C480.005 51.1288 479.21 51.2841 478.27 51.2841ZM479.804 47.4318C480.585 47.4318 481.244 47.2197 481.782 46.7955C482.327 46.3636 482.744 45.7614 483.032 44.9886C483.327 44.2159 483.475 43.3106 483.475 42.2727C483.475 41.2348 483.331 40.3333 483.043 39.5682C482.755 38.803 482.338 38.2121 481.793 37.7955C481.248 37.3788 480.585 37.1705 479.804 37.1705C479.009 37.1705 478.338 37.3864 477.793 37.8182C477.248 38.25 476.835 38.8485 476.554 39.6136C476.274 40.3788 476.134 41.2652 476.134 42.2727C476.134 43.2879 476.274 44.1856 476.554 44.9659C476.842 45.7386 477.255 46.3447 477.793 46.7841C478.338 47.2159 479.009 47.4318 479.804 47.4318ZM492.182 51V33.5455H497.023V51H492.182ZM494.614 31.2955C493.894 31.2955 493.277 31.0568 492.762 30.5795C492.254 30.0947 492 29.5152 492 28.8409C492 28.1742 492.254 27.6023 492.762 27.125C493.277 26.6402 493.894 26.3977 494.614 26.3977C495.334 26.3977 495.947 26.6402 496.455 27.125C496.97 27.6023 497.228 28.1742 497.228 28.8409C497.228 29.5152 496.97 30.0947 496.455 30.5795C495.947 31.0568 495.334 31.2955 494.614 31.2955ZM508.787 51.3409C506.999 51.3409 505.462 50.9621 504.174 50.2045C502.893 49.4394 501.909 48.3788 501.219 47.0227C500.537 45.6667 500.196 44.1061 500.196 42.3409C500.196 40.553 500.541 38.9848 501.231 37.6364C501.927 36.2803 502.916 35.2235 504.196 34.4659C505.477 33.7008 506.999 33.3182 508.765 33.3182C510.287 33.3182 511.621 33.5947 512.765 34.1477C513.909 34.7008 514.814 35.4773 515.481 36.4773C516.147 37.4773 516.515 38.6515 516.583 40H512.015C511.886 39.1288 511.545 38.428 510.992 37.8977C510.446 37.3598 509.731 37.0909 508.844 37.0909C508.094 37.0909 507.439 37.2955 506.878 37.7045C506.325 38.1061 505.893 38.6932 505.583 39.4659C505.272 40.2386 505.117 41.1742 505.117 42.2727C505.117 43.3864 505.268 44.3333 505.571 45.1136C505.882 45.8939 506.318 46.4886 506.878 46.8977C507.439 47.3068 508.094 47.5114 508.844 47.5114C509.397 47.5114 509.893 47.3977 510.333 47.1705C510.78 46.9432 511.147 46.6136 511.435 46.1818C511.731 45.7424 511.924 45.2159 512.015 44.6023H516.583C516.507 45.9356 516.143 47.1098 515.492 48.125C514.848 49.1326 513.958 49.9205 512.821 50.4886C511.685 51.0568 510.34 51.3409 508.787 51.3409ZM524.659 51.3295C523.546 51.3295 522.553 51.1364 521.682 50.75C520.811 50.3561 520.122 49.7765 519.614 49.0114C519.114 48.2386 518.864 47.2765 518.864 46.125C518.864 45.1553 519.042 44.3409 519.398 43.6818C519.754 43.0227 520.239 42.4924 520.853 42.0909C521.466 41.6894 522.163 41.3864 522.944 41.1818C523.731 40.9773 524.557 40.8333 525.421 40.75C526.436 40.6439 527.254 40.5455 527.875 40.4545C528.497 40.3561 528.947 40.2121 529.228 40.0227C529.508 39.8333 529.648 39.553 529.648 39.1818V39.1136C529.648 38.3939 529.421 37.8371 528.966 37.4432C528.519 37.0492 527.883 36.8523 527.057 36.8523C526.186 36.8523 525.493 37.0455 524.978 37.4318C524.463 37.8106 524.122 38.2879 523.955 38.8636L519.478 38.5C519.705 37.4394 520.152 36.5227 520.819 35.75C521.485 34.9697 522.345 34.3712 523.398 33.9545C524.459 33.5303 525.686 33.3182 527.08 33.3182C528.05 33.3182 528.978 33.4318 529.864 33.6591C530.758 33.8864 531.55 34.2386 532.239 34.7159C532.936 35.1932 533.485 35.8068 533.887 36.5568C534.288 37.2992 534.489 38.1894 534.489 39.2273V51H529.898V48.5795H529.762C529.481 49.125 529.106 49.6061 528.637 50.0227C528.167 50.4318 527.603 50.7538 526.944 50.9886C526.284 51.2159 525.523 51.3295 524.659 51.3295ZM526.046 47.9886C526.758 47.9886 527.387 47.8485 527.932 47.5682C528.478 47.2803 528.906 46.8939 529.216 46.4091C529.527 45.9242 529.682 45.375 529.682 44.7614V42.9091C529.531 43.0076 529.322 43.0985 529.057 43.1818C528.8 43.2576 528.508 43.3295 528.182 43.3977C527.856 43.4583 527.531 43.5152 527.205 43.5682C526.879 43.6136 526.584 43.6553 526.319 43.6932C525.75 43.7765 525.254 43.9091 524.83 44.0909C524.406 44.2727 524.076 44.5189 523.841 44.8295C523.606 45.1326 523.489 45.5114 523.489 45.9659C523.489 46.625 523.728 47.1288 524.205 47.4773C524.69 47.8182 525.303 47.9886 526.046 47.9886ZM538.245 57.5455V33.5455H543.017V36.4773H543.233C543.445 36.0076 543.752 35.5303 544.154 35.0455C544.563 34.553 545.093 34.1439 545.745 33.8182C546.404 33.4848 547.222 33.3182 548.199 33.3182C549.472 33.3182 550.646 33.6515 551.722 34.3182C552.798 34.9773 553.658 35.9735 554.302 37.3068C554.945 38.6326 555.267 40.2955 555.267 42.2955C555.267 44.2424 554.953 45.8864 554.324 47.2273C553.703 48.5606 552.855 49.572 551.779 50.2614C550.711 50.9432 549.514 51.2841 548.188 51.2841C547.249 51.2841 546.449 51.1288 545.79 50.8182C545.139 50.5076 544.605 50.1174 544.188 49.6477C543.771 49.1705 543.453 48.6894 543.233 48.2045H543.086V57.5455H538.245ZM542.983 42.2727C542.983 43.3106 543.127 44.2159 543.415 44.9886C543.703 45.7614 544.12 46.3636 544.665 46.7955C545.211 47.2197 545.874 47.4318 546.654 47.4318C547.442 47.4318 548.108 47.2159 548.654 46.7841C549.199 46.3447 549.612 45.7386 549.892 44.9659C550.18 44.1856 550.324 43.2879 550.324 42.2727C550.324 41.2652 550.184 40.3788 549.904 39.6136C549.624 38.8485 549.211 38.25 548.665 37.8182C548.12 37.3864 547.449 37.1705 546.654 37.1705C545.866 37.1705 545.199 37.3788 544.654 37.7955C544.116 38.2121 543.703 38.803 543.415 39.5682C543.127 40.3333 542.983 41.2348 542.983 42.2727Z" fill="#F1FFFA"/>
<path d="M22.3514 0.07234C19.4454 0.577965 16.7946 2.76134 15.4529 5.74911C14.6598 7.52454 14.2959 9.25401 14.247 11.5121C14.2036 13.4886 14.41 15.1664 14.9043 16.9705C15.9092 20.619 18.2938 23.6068 21.1673 24.8134C22.8892 25.5316 24.6491 25.8189 26.4634 25.6868C28.3211 25.5489 29.7443 25.072 30.5808 24.3193C31.238 23.7275 31.8953 22.7335 32.2158 21.8544C32.5417 20.9695 32.8622 19.4239 33.0903 17.6887C33.1881 16.9475 33.1881 13.684 33.0903 12.8336C32.6014 8.56452 31.7215 5.89276 30.0213 3.52552C28.7394 1.74435 27.1641 0.635422 25.2575 0.158525C24.66 0.00913811 23.0033 -0.0425739 22.3514 0.07234ZM24.3341 3.97943C25.2032 4.14606 25.8713 4.554 26.5937 5.34691C28.1581 7.07638 29.0164 9.5298 29.3912 13.345C29.5813 15.2468 29.489 17.1429 29.1142 19.039C28.8806 20.2226 28.7068 20.6937 28.3483 21.1074C27.9843 21.5269 27.3759 21.6935 26.0451 21.751C25.0022 21.7912 24.2635 21.6935 23.3183 21.389C22.0309 20.9753 21.0641 20.303 20.2601 19.2688C19.277 17.9933 18.636 16.5109 18.2829 14.701C17.5605 10.949 18.2177 7.56476 20.0374 5.6342C21.3139 4.2897 22.8512 3.69789 24.3341 3.97943Z" fill="#F1FFFA"/>
<path d="M46.4962 0.0206871C46.4527 0.032177 46.23 0.0723972 46.0073 0.106873C44.4266 0.376921 42.7319 1.40541 41.5477 2.81311C39.527 5.21482 38.4244 8.22558 37.9355 12.6325C37.8214 13.707 37.7725 16.057 37.854 16.9821C38.0278 18.9816 38.4189 20.9466 38.8644 22.0613C39.2935 23.1472 40.2712 24.3423 41.0914 24.7962C42.004 25.3019 43.0632 25.5777 44.5244 25.6868C46.4473 25.8305 48.4191 25.4742 50.141 24.6756C52.2594 23.6873 54.128 21.6878 55.2959 19.1539C56.92 15.6376 57.2351 10.7537 56.0781 7.11665C54.9374 3.53707 52.2649 0.905527 48.9949 0.135601C48.6201 0.0494156 46.7298 -0.0425167 46.4962 0.0206871ZM48.4245 4.04269C50.0758 4.49086 51.5153 5.86409 52.2649 7.69697C53.5305 10.8112 53.1285 15.4824 51.3469 18.407C50.179 20.3146 48.6418 21.3431 46.431 21.6878C45.3501 21.8544 43.7259 21.7338 43.0578 21.4292C42.7862 21.3086 42.4494 20.9294 42.3136 20.5961C41.928 19.6825 41.5803 17.5854 41.5151 15.8502C41.4445 13.8449 41.8193 10.9778 42.3951 9.09318C43.1338 6.69147 44.4755 4.82411 45.9204 4.19783C46.6211 3.89905 47.6586 3.8301 48.4245 4.04269Z" fill="#F1FFFA"/>
<path d="M7.68519 18.5849C5.51243 18.9354 4.111 19.6479 2.73672 21.1015C1.99798 21.8829 1.49282 22.6414 1.00395 23.6928C-0.994997 27.9906 0.0587932 33.7479 3.56237 37.6779C4.43148 38.6547 5.8818 39.9188 6.89757 40.5853C7.60371 41.0449 8.92367 41.7114 9.61352 41.9527C10.7108 42.3377 12.0036 42.5446 12.9813 42.4871C14.2469 42.4182 14.8933 42.2343 16.0884 41.608C16.8651 41.2001 16.9031 41.1713 17.5604 40.4991C18.1796 39.8671 18.2611 39.7636 18.5762 39.1488C19.0379 38.2468 19.3692 37.3562 19.467 36.7529C19.9179 34.0007 19.4779 30.3579 18.3209 27.2552C17.4572 24.9397 16.3111 22.9919 14.9911 21.5957C13.5354 20.0558 11.971 19.125 10.1839 18.7228C9.65698 18.6079 8.09259 18.5217 7.68519 18.5849ZM9.74932 22.6586C10.2165 22.7908 11.0964 23.2619 11.5418 23.6181C13.7526 25.3706 15.4746 29.134 15.8602 33.0296C15.9689 34.173 15.8928 35.8738 15.6973 36.6609C15.6158 36.9655 15.2573 37.5056 14.8988 37.8618C14.3393 38.4134 13.0356 38.6719 11.8623 38.4593C10.5207 38.2123 9.07033 37.4538 7.76667 36.3047C5.74057 34.5235 4.58357 32.7309 4.07297 30.5935C3.43201 27.9159 3.9752 25.3304 5.50157 23.7963C6.11537 23.1757 6.77806 22.808 7.63087 22.6012C8.06543 22.492 9.3039 22.5265 9.74932 22.6586Z" fill="#F1FFFA"/>
<path d="M61.4069 18.6141C60.3097 18.7635 58.9571 19.2749 58.0011 19.9184C57.2189 20.4355 56.6866 20.8952 55.9913 21.6364C55.3395 22.3374 55.1602 22.5557 54.7039 23.2222C52.8788 25.917 51.548 29.9504 51.4068 33.2313C51.3905 33.6105 51.3688 34.0184 51.3633 34.1448C51.3307 34.5068 51.4339 36.0984 51.5208 36.6787C51.6186 37.3222 51.8033 37.8393 52.3248 38.9195C52.667 39.6205 52.7756 39.7871 53.1776 40.2353C53.7914 40.9133 54.1879 41.235 54.8017 41.5568C55.9859 42.1888 56.7952 42.4244 58.0065 42.4876C59.1255 42.5508 60.6953 42.2635 61.8415 41.7809C63.0311 41.281 64.4379 40.4306 65.3722 39.6435C68.0284 37.4026 69.4733 35.3399 70.3641 32.5015C71.7276 28.1635 70.8639 23.7336 68.1099 20.9354C66.828 19.6311 65.2962 18.8727 63.4276 18.6084C62.9333 18.5394 61.9501 18.5452 61.4069 18.6141ZM63.8621 22.7568C64.5629 23.0096 64.9377 23.2452 65.4428 23.7508C65.9534 24.2622 66.2522 24.7046 66.589 25.4515C67.0561 26.4915 67.2245 27.4396 67.1756 28.7496C67.0778 31.4041 65.91 33.8403 63.8187 35.7709C62.6345 36.8626 62.0479 37.2935 61.0376 37.7991C59.446 38.6035 58.1206 38.7414 56.7246 38.253C56.4096 38.1438 56.3009 38.0692 55.975 37.7187C55.7686 37.4946 55.5296 37.1786 55.4481 37.0177C55.2471 36.627 55.1331 35.857 55.095 34.6964C55.0136 31.9385 55.7849 28.9105 57.2461 26.2962C58.1804 24.6242 59.5709 23.2797 60.8692 22.797C61.4993 22.5672 61.8089 22.5155 62.5748 22.5385C63.2483 22.55 63.3515 22.5729 63.8621 22.7568Z" fill="#F1FFFA"/>
<path d="M35.0347 25.85C33.3672 26.459 32.0037 27.3496 29.869 29.24C27.1368 31.6532 24.0732 35.3304 21.7972 38.9387C19.9015 41.9438 18.2556 45.1958 16.9248 48.5743C14.589 54.5154 13.7091 59.3303 14.3446 62.6399C14.6814 64.3751 15.5233 66.1103 16.7781 67.6329C17.7341 68.7935 19.6407 70.1208 21.0313 70.5919C22.009 70.9252 22.487 70.9999 23.6549 70.9999C24.5675 70.9999 24.8391 70.9769 25.3497 70.8677C28.4621 70.2012 31.4714 68.2362 34.8718 64.6509C35.7789 63.6913 36.8218 62.749 37.5117 62.2549C37.691 62.1285 38.1255 61.8469 38.484 61.6343C39.2934 61.1517 39.8583 60.738 40.4938 60.1807C43.4705 57.5376 45.8714 53.9925 46.9035 50.729C47.702 48.2123 47.4684 45.8164 46.2679 44.1156C45.464 42.9837 44.2527 42.0874 42.911 41.6392C42.1397 41.3864 41.7269 41.3117 40.8686 41.283C39.3423 41.2255 38.2016 41.5416 37.0717 42.3287C36.7512 42.5528 35.8658 43.4376 35.6431 43.7537L35.5291 43.9145L34.8881 43.2308C33.9484 42.2253 33.2639 41.7944 32.0526 41.4496C31.5801 41.3175 31.4334 41.3002 30.4719 41.3002C29.6409 41.2945 29.3149 41.3175 28.9564 41.3979C27.4735 41.7369 26.3926 42.323 25.4094 43.3227C24.6652 44.0812 24.1546 44.943 23.883 45.9198C23.2747 48.0744 23.7309 50.5911 25.2682 53.4984C26.5501 55.9346 28.1688 58.026 30.3361 60.037C30.9337 60.5944 31.1183 60.9334 31.1618 61.5654C31.1998 62.094 31.1183 62.502 30.863 63.0421C30.6729 63.45 30.6186 63.5075 29.9288 64.0935C28.4133 65.3806 27.0173 66.2424 25.6864 66.7078C23.7255 67.3916 22.3838 67.2134 20.7434 66.0586C19.7657 65.3691 19.0323 64.4727 18.4946 63.3006C17.9079 62.0308 17.7613 60.8874 17.9514 58.9913C18.1632 56.9056 18.6793 54.8257 19.7168 51.8666C21.0313 48.1434 22.8075 44.4489 24.8391 41.237C26.9358 37.9218 29.5702 34.7214 32.0472 32.4806C33.5084 31.1533 35.1651 29.9467 35.5073 29.9467C35.7463 29.9467 36.8218 30.6764 37.9408 31.5957C41.1891 34.2675 44.7198 38.6112 47.2674 43.0757C49.614 47.1781 51.6564 52.2229 52.5798 56.1759C53.0958 58.3765 53.2534 60.6001 52.9926 61.8642C52.6504 63.5189 51.6238 65.0933 50.2713 66.0413C48.6254 67.1962 47.3 67.3858 45.3934 66.7366C44.5569 66.455 44.1984 66.0873 43.9485 65.2542C43.4977 63.7718 42.4439 62.7203 41.0098 62.3468C40.6296 62.2434 40.4449 62.2262 39.9235 62.2491C38.8371 62.3009 38.0169 62.6858 37.2292 63.5304C36.8707 63.9097 36.7404 64.0993 36.534 64.5417C36.3982 64.8405 36.2406 65.2484 36.1917 65.4553C36.0668 65.9666 36.0668 67.0238 36.1972 67.5237C36.5828 69.0233 37.6366 70.161 39.0272 70.5804C39.3694 70.6781 39.603 70.7068 40.1136 70.7068C40.8415 70.7068 41.0805 70.6494 41.9224 70.2702C42.6394 69.9484 42.873 69.9369 43.4814 70.184C44.1495 70.4598 44.9425 70.7126 45.627 70.8677C46.1158 70.9769 46.3603 70.9941 47.338 70.9941C48.3103 70.9941 48.5548 70.9769 49.0056 70.8735C51.086 70.3793 53.1665 69.0176 54.4973 67.2766C56.6049 64.5187 57.2241 61.7493 56.6537 57.6123C56.0291 53.0905 53.601 46.5748 50.5266 41.1508C47.7943 36.3244 44.1386 31.7796 40.5481 28.7286C38.8697 27.3094 37.528 26.4418 36.3275 26.0109C35.7952 25.8213 35.29 25.7581 35.0347 25.85ZM31.1075 44.8281C31.8191 45.0924 32.2373 45.4716 33.2911 46.7989C33.9918 47.6952 34.5676 48.2813 34.937 48.4881C35.2303 48.6605 35.7246 48.6663 36.0397 48.5054C36.3764 48.333 37.0826 47.6148 37.7453 46.7587C38.7339 45.4946 39.2716 45.0235 39.9724 44.8051C40.5862 44.6155 41.4607 44.7362 42.0256 45.0924C42.4167 45.3452 42.6286 45.5578 42.9653 46.0347C43.4922 46.7931 43.6552 47.3332 43.6063 48.2066C43.5303 49.5281 42.194 52.2746 40.5862 54.4235C40.0701 55.1072 38.2939 56.9918 37.7507 57.4227C37.1152 57.9284 36.5014 58.3018 35.9908 58.4742L35.5182 58.6351L35.1814 58.5374C34.2308 58.2616 33.1933 57.4859 31.8245 56.038C30.7761 54.9233 30.146 54.1304 29.467 53.0445C28.5979 51.6598 28.1417 50.7347 27.6691 49.396C27.4138 48.6663 27.4083 48.6318 27.4083 47.9883C27.4029 47.1953 27.479 46.9253 27.8755 46.2818C28.5382 45.2073 29.3095 44.7247 30.3796 44.7189C30.6675 44.7132 30.8956 44.7477 31.1075 44.8281Z" fill="#F1FFFA"/>
</svg>
