<svg width="71" height="71" viewBox="0 0 71 71" fill="none" xmlns="http://www.w3.org/2000/svg">
<path d="M22.3514 0.07234C19.4454 0.577965 16.7946 2.76134 15.4529 5.74911C14.6598 7.52454 14.2959 9.25401 14.247 11.5121C14.2036 13.4886 14.41 15.1664 14.9043 16.9705C15.9092 20.619 18.2938 23.6068 21.1673 24.8134C22.8892 25.5316 24.6491 25.8189 26.4634 25.6868C28.3211 25.5489 29.7443 25.072 30.5808 24.3193C31.238 23.7275 31.8953 22.7335 32.2158 21.8544C32.5417 20.9695 32.8622 19.4239 33.0903 17.6887C33.1881 16.9475 33.1881 13.684 33.0903 12.8336C32.6014 8.56452 31.7215 5.89276 30.0213 3.52552C28.7394 1.74435 27.1641 0.635422 25.2575 0.158525C24.66 0.00913811 23.0033 -0.0425739 22.3514 0.07234ZM24.3341 3.97943C25.2032 4.14606 25.8713 4.554 26.5937 5.34691C28.1581 7.07638 29.0164 9.5298 29.3912 13.345C29.5813 15.2468 29.489 17.1429 29.1142 19.039C28.8806 20.2226 28.7068 20.6937 28.3483 21.1074C27.9843 21.5269 27.3759 21.6935 26.0451 21.751C25.0022 21.7912 24.2635 21.6935 23.3183 21.389C22.0309 20.9753 21.0641 20.303 20.2601 19.2688C19.277 17.9933 18.636 16.5109 18.2829 14.701C17.5605 10.949 18.2177 7.56476 20.0374 5.6342C21.3139 4.2897 22.8512 3.69789 24.3341 3.97943Z" fill="#F1FFFA"/>
<path d="M46.4962 0.0206871C46.4527 0.032177 46.23 0.0723972 46.0073 0.106873C44.4266 0.376921 42.7319 1.40541 41.5477 2.81311C39.527 5.21482 38.4244 8.22558 37.9355 12.6325C37.8214 13.707 37.7725 16.057 37.854 16.9821C38.0278 18.9816 38.4189 20.9466 38.8644 22.0613C39.2935 23.1472 40.2712 24.3423 41.0914 24.7962C42.004 25.3019 43.0632 25.5777 44.5244 25.6868C46.4473 25.8305 48.4191 25.4742 50.141 24.6756C52.2594 23.6873 54.128 21.6878 55.2959 19.1539C56.92 15.6376 57.2351 10.7537 56.0781 7.11665C54.9374 3.53707 52.2649 0.905527 48.9949 0.135601C48.6201 0.0494156 46.7298 -0.0425167 46.4962 0.0206871ZM48.4245 4.04269C50.0758 4.49086 51.5153 5.86409 52.2649 7.69697C53.5305 10.8112 53.1285 15.4824 51.3469 18.407C50.179 20.3146 48.6418 21.3431 46.431 21.6878C45.3501 21.8544 43.7259 21.7338 43.0578 21.4292C42.7862 21.3086 42.4494 20.9294 42.3136 20.5961C41.928 19.6825 41.5803 17.5854 41.5151 15.8502C41.4445 13.8449 41.8193 10.9778 42.3951 9.09318C43.1338 6.69147 44.4755 4.82411 45.9204 4.19783C46.6211 3.89905 47.6586 3.8301 48.4245 4.04269Z" fill="#F1FFFA"/>
<path d="M7.68519 18.5849C5.51243 18.9354 4.111 19.6479 2.73672 21.1015C1.99798 21.8829 1.49282 22.6414 1.00395 23.6928C-0.994997 27.9906 0.0587932 33.7479 3.56237 37.6779C4.43148 38.6547 5.8818 39.9188 6.89757 40.5853C7.60371 41.0449 8.92367 41.7114 9.61352 41.9527C10.7108 42.3377 12.0036 42.5446 12.9813 42.4871C14.2469 42.4182 14.8933 42.2343 16.0884 41.608C16.8651 41.2001 16.9031 41.1713 17.5604 40.4991C18.1796 39.8671 18.2611 39.7636 18.5762 39.1488C19.0379 38.2468 19.3692 37.3562 19.467 36.7529C19.9179 34.0007 19.4779 30.3579 18.3209 27.2552C17.4572 24.9397 16.3111 22.9919 14.9911 21.5957C13.5354 20.0558 11.971 19.125 10.1839 18.7228C9.65698 18.6079 8.09259 18.5217 7.68519 18.5849ZM9.74932 22.6586C10.2165 22.7908 11.0964 23.2619 11.5418 23.6181C13.7526 25.3706 15.4746 29.134 15.8602 33.0296C15.9689 34.173 15.8928 35.8738 15.6973 36.6609C15.6158 36.9655 15.2573 37.5056 14.8988 37.8618C14.3393 38.4134 13.0356 38.6719 11.8623 38.4593C10.5207 38.2123 9.07033 37.4538 7.76667 36.3047C5.74057 34.5235 4.58357 32.7309 4.07297 30.5935C3.43201 27.9159 3.9752 25.3304 5.50157 23.7963C6.11537 23.1757 6.77806 22.808 7.63087 22.6012C8.06543 22.492 9.3039 22.5265 9.74932 22.6586Z" fill="#F1FFFA"/>
<path d="M61.4069 18.6141C60.3097 18.7635 58.9571 19.2749 58.0011 19.9184C57.2189 20.4355 56.6866 20.8952 55.9913 21.6364C55.3395 22.3374 55.1602 22.5557 54.7039 23.2222C52.8788 25.917 51.548 29.9504 51.4068 33.2313C51.3905 33.6105 51.3688 34.0184 51.3633 34.1448C51.3307 34.5068 51.4339 36.0984 51.5208 36.6787C51.6186 37.3222 51.8033 37.8393 52.3248 38.9195C52.667 39.6205 52.7756 39.7871 53.1776 40.2353C53.7914 40.9133 54.1879 41.235 54.8017 41.5568C55.9859 42.1888 56.7952 42.4244 58.0065 42.4876C59.1255 42.5508 60.6953 42.2635 61.8415 41.7809C63.0311 41.281 64.4379 40.4306 65.3722 39.6435C68.0284 37.4026 69.4733 35.3399 70.3641 32.5015C71.7276 28.1635 70.8639 23.7336 68.1099 20.9354C66.828 19.6311 65.2962 18.8727 63.4276 18.6084C62.9333 18.5394 61.9501 18.5452 61.4069 18.6141ZM63.8621 22.7568C64.5629 23.0096 64.9377 23.2452 65.4428 23.7508C65.9534 24.2622 66.2522 24.7046 66.589 25.4515C67.0561 26.4915 67.2245 27.4396 67.1756 28.7496C67.0778 31.4041 65.91 33.8403 63.8187 35.7709C62.6345 36.8626 62.0479 37.2935 61.0376 37.7991C59.446 38.6035 58.1206 38.7414 56.7246 38.253C56.4096 38.1438 56.3009 38.0692 55.975 37.7187C55.7686 37.4946 55.5296 37.1786 55.4481 37.0177C55.2471 36.627 55.1331 35.857 55.095 34.6964C55.0136 31.9385 55.7849 28.9105 57.2461 26.2962C58.1804 24.6242 59.5709 23.2797 60.8692 22.797C61.4993 22.5672 61.8089 22.5155 62.5748 22.5385C63.2483 22.55 63.3515 22.5729 63.8621 22.7568Z" fill="#F1FFFA"/>
<path d="M35.0347 25.85C33.3672 26.459 32.0037 27.3496 29.869 29.24C27.1368 31.6532 24.0732 35.3304 21.7972 38.9387C19.9015 41.9438 18.2556 45.1958 16.9248 48.5743C14.589 54.5154 13.7091 59.3303 14.3446 62.6399C14.6814 64.3751 15.5233 66.1103 16.7781 67.6329C17.7341 68.7935 19.6407 70.1208 21.0313 70.5919C22.009 70.9252 22.487 70.9999 23.6549 70.9999C24.5675 70.9999 24.8391 70.9769 25.3497 70.8677C28.4621 70.2012 31.4714 68.2362 34.8718 64.6509C35.7789 63.6913 36.8218 62.749 37.5117 62.2549C37.691 62.1285 38.1255 61.8469 38.484 61.6343C39.2934 61.1517 39.8583 60.738 40.4938 60.1807C43.4705 57.5376 45.8714 53.9925 46.9035 50.729C47.702 48.2123 47.4684 45.8164 46.2679 44.1156C45.464 42.9837 44.2527 42.0874 42.911 41.6392C42.1397 41.3864 41.7269 41.3117 40.8686 41.283C39.3423 41.2255 38.2016 41.5416 37.0717 42.3287C36.7512 42.5528 35.8658 43.4376 35.6431 43.7537L35.5291 43.9145L34.8881 43.2308C33.9484 42.2253 33.2639 41.7944 32.0526 41.4496C31.5801 41.3175 31.4334 41.3002 30.4719 41.3002C29.6409 41.2945 29.3149 41.3175 28.9564 41.3979C27.4735 41.7369 26.3926 42.323 25.4094 43.3227C24.6652 44.0812 24.1546 44.943 23.883 45.9198C23.2747 48.0744 23.7309 50.5911 25.2682 53.4984C26.5501 55.9346 28.1688 58.026 30.3361 60.037C30.9337 60.5944 31.1183 60.9334 31.1618 61.5654C31.1998 62.094 31.1183 62.502 30.863 63.0421C30.6729 63.45 30.6186 63.5075 29.9288 64.0935C28.4133 65.3806 27.0173 66.2424 25.6864 66.7078C23.7255 67.3916 22.3838 67.2134 20.7434 66.0586C19.7657 65.3691 19.0323 64.4727 18.4946 63.3006C17.9079 62.0308 17.7613 60.8874 17.9514 58.9913C18.1632 56.9056 18.6793 54.8257 19.7168 51.8666C21.0313 48.1434 22.8075 44.4489 24.8391 41.237C26.9358 37.9218 29.5702 34.7214 32.0472 32.4806C33.5084 31.1533 35.1651 29.9467 35.5073 29.9467C35.7463 29.9467 36.8218 30.6764 37.9408 31.5957C41.1891 34.2675 44.7198 38.6112 47.2674 43.0757C49.614 47.1781 51.6564 52.2229 52.5798 56.1759C53.0958 58.3765 53.2534 60.6001 52.9926 61.8642C52.6504 63.5189 51.6238 65.0933 50.2713 66.0413C48.6254 67.1962 47.3 67.3858 45.3934 66.7366C44.5569 66.455 44.1984 66.0873 43.9485 65.2542C43.4977 63.7718 42.4439 62.7203 41.0098 62.3468C40.6296 62.2434 40.4449 62.2262 39.9235 62.2491C38.8371 62.3009 38.0169 62.6858 37.2292 63.5304C36.8707 63.9097 36.7404 64.0993 36.534 64.5417C36.3982 64.8405 36.2406 65.2484 36.1917 65.4553C36.0668 65.9666 36.0668 67.0238 36.1972 67.5237C36.5828 69.0233 37.6366 70.161 39.0272 70.5804C39.3694 70.6781 39.603 70.7068 40.1136 70.7068C40.8415 70.7068 41.0805 70.6494 41.9224 70.2702C42.6394 69.9484 42.873 69.9369 43.4814 70.184C44.1495 70.4598 44.9425 70.7126 45.627 70.8677C46.1158 70.9769 46.3603 70.9941 47.338 70.9941C48.3103 70.9941 48.5548 70.9769 49.0056 70.8735C51.086 70.3793 53.1665 69.0176 54.4973 67.2766C56.6049 64.5187 57.2241 61.7493 56.6537 57.6123C56.0291 53.0905 53.601 46.5748 50.5266 41.1508C47.7943 36.3244 44.1386 31.7796 40.5481 28.7286C38.8697 27.3094 37.528 26.4418 36.3275 26.0109C35.7952 25.8213 35.29 25.7581 35.0347 25.85ZM31.1075 44.8281C31.8191 45.0924 32.2373 45.4716 33.2911 46.7989C33.9918 47.6952 34.5676 48.2813 34.937 48.4881C35.2303 48.6605 35.7246 48.6663 36.0397 48.5054C36.3764 48.333 37.0826 47.6148 37.7453 46.7587C38.7339 45.4946 39.2716 45.0235 39.9724 44.8051C40.5862 44.6155 41.4607 44.7362 42.0256 45.0924C42.4167 45.3452 42.6286 45.5578 42.9653 46.0347C43.4922 46.7931 43.6552 47.3332 43.6063 48.2066C43.5303 49.5281 42.194 52.2746 40.5862 54.4235C40.0701 55.1072 38.2939 56.9918 37.7507 57.4227C37.1152 57.9284 36.5014 58.3018 35.9908 58.4742L35.5182 58.6351L35.1814 58.5374C34.2308 58.2616 33.1933 57.4859 31.8245 56.038C30.7761 54.9233 30.146 54.1304 29.467 53.0445C28.5979 51.6598 28.1417 50.7347 27.6691 49.396C27.4138 48.6663 27.4083 48.6318 27.4083 47.9883C27.4029 47.1953 27.479 46.9253 27.8755 46.2818C28.5382 45.2073 29.3095 44.7247 30.3796 44.7189C30.6675 44.7132 30.8956 44.7477 31.1075 44.8281Z" fill="#F1FFFA"/>
</svg>
