<svg width="666" height="86" viewBox="0 0 666 86" fill="none" xmlns="http://www.w3.org/2000/svg">
<path d="M26.9562 0.322262C23.4515 0.932055 20.2546 3.56524 18.6365 7.16856C17.68 9.30976 17.2411 11.3955 17.1822 14.1188C17.1298 16.5025 17.3787 18.5259 17.9748 20.7018C19.1868 25.102 22.0626 28.7053 25.5281 30.1605C27.6048 31.0266 29.7273 31.3731 31.9153 31.2137C34.1558 31.0474 35.8721 30.4723 36.881 29.5645C37.6736 28.8508 38.4663 27.652 38.8528 26.5918C39.2459 25.5247 39.6324 23.6606 39.9075 21.5679C40.0254 20.674 40.0254 16.7381 39.9075 15.7126C39.3179 10.564 38.2567 7.34179 36.2062 4.48686C34.6602 2.33873 32.7604 1.00135 30.461 0.426205C29.7404 0.246038 27.7423 0.183674 26.9562 0.322262ZM29.3473 5.03429C30.3955 5.23524 31.2013 5.72723 32.0725 6.68349C33.9592 8.76926 34.9943 11.7281 35.4463 16.3293C35.6756 18.6229 35.5642 20.9096 35.1122 23.1964C34.8305 24.6238 34.6209 25.192 34.1885 25.691C33.7496 26.1968 33.0159 26.3978 31.4109 26.4671C30.1531 26.5156 29.2622 26.3978 28.1223 26.0305C26.5697 25.5316 25.4036 24.7208 24.4341 23.4735C23.2484 21.9352 22.4754 20.1474 22.0495 17.9646C21.1783 13.4397 21.9709 9.35826 24.1655 7.02997C25.705 5.40848 27.5589 4.69474 29.3473 5.03429Z" fill="#281E32"/>
<path d="M56.0752 0.259966C56.0228 0.273825 55.7542 0.32233 55.4857 0.363907C53.5793 0.689592 51.5354 1.92996 50.1073 3.62768C47.6703 6.52419 46.3405 10.1552 45.7509 15.4701C45.6133 16.7659 45.5544 19.6 45.6526 20.7157C45.8623 23.1271 46.3339 25.497 46.8711 26.8413C47.3886 28.151 48.5678 29.5923 49.557 30.1397C50.6576 30.7495 51.935 31.0821 53.6972 31.2138C56.0163 31.387 58.3943 30.9574 60.471 29.9942C63.0258 28.8024 65.2794 26.3909 66.6878 23.335C68.6466 19.0942 69.0265 13.2042 67.6312 8.81783C66.2555 4.50079 63.0324 1.3271 59.0887 0.398556C58.6367 0.294613 56.3569 0.183743 56.0752 0.259966ZM58.4008 5.11058C60.3923 5.65108 62.1284 7.30721 63.0324 9.51771C64.5588 13.2735 64.074 18.9071 61.9253 22.4342C60.5168 24.7348 58.6629 25.9751 55.9966 26.3909C54.693 26.5919 52.7342 26.4463 51.9285 26.0791C51.6009 25.9336 51.1948 25.4762 51.031 25.0743C50.5659 23.9725 50.1466 21.4433 50.068 19.3506C49.9828 16.9322 50.4349 13.4744 51.1293 11.2016C52.0202 8.30505 53.6383 6.05298 55.3808 5.29767C56.2259 4.93734 57.4772 4.85419 58.4008 5.11058Z" fill="#281E32"/>
<path d="M9.26848 22.6488C6.64809 23.0715 4.95794 23.9307 3.30054 25.6839C2.40961 26.6263 1.80036 27.541 1.21078 28.809C-1.19998 33.9923 0.0709057 40.9356 4.29629 45.6753C5.34445 46.8533 7.09356 48.3778 8.31859 49.1816C9.17022 49.736 10.7621 50.5398 11.5941 50.8308C12.9174 51.2951 14.4765 51.5446 15.6557 51.4753C17.1821 51.3921 17.9616 51.1704 19.4029 50.4151C20.3396 49.9231 20.3855 49.8884 21.1782 49.0777C21.925 48.3154 22.0232 48.1907 22.4032 47.4493C22.96 46.3613 23.3596 45.2873 23.4776 44.5597C24.0213 41.2405 23.4907 36.8472 22.0953 33.1053C21.0537 30.3127 19.6714 27.9636 18.0796 26.2798C16.3239 24.4227 14.4372 23.3001 12.2819 22.8151C11.6465 22.6765 9.75981 22.5725 9.26848 22.6488ZM11.7579 27.5617C12.3212 27.7211 13.3825 28.2893 13.9197 28.719C16.5859 30.8324 18.6626 35.3712 19.1277 40.0694C19.2587 41.4483 19.167 43.4995 18.9312 44.4488C18.8329 44.8161 18.4006 45.4674 17.9682 45.8971C17.2934 46.5623 15.7212 46.8741 14.3062 46.6177C12.6881 46.3198 10.939 45.4051 9.36675 44.0192C6.92323 41.871 5.52787 39.7091 4.91208 37.1313C4.13906 33.9022 4.79416 30.7839 6.63499 28.9338C7.37525 28.1854 8.17447 27.7419 9.20297 27.4924C9.72705 27.3608 11.2207 27.4024 11.7579 27.5617Z" fill="#281E32"/>
<path d="M74.0579 22.6839C72.7346 22.8641 71.1034 23.4808 69.9504 24.2569C69.0071 24.8805 68.3651 25.4349 67.5266 26.3288C66.7404 27.1742 66.5243 27.4375 65.974 28.2413C63.7728 31.4912 62.1679 36.3557 61.9975 40.3124C61.9779 40.7698 61.9517 41.2618 61.9451 41.4142C61.9058 41.8508 62.0303 43.7702 62.1351 44.4701C62.253 45.2462 62.4757 45.8698 63.1046 47.1726C63.5174 48.018 63.6484 48.2189 64.1331 48.7594C64.8734 49.5771 65.3516 49.9651 66.0919 50.3532C67.52 51.1154 68.4961 51.3995 69.957 51.4758C71.3065 51.552 73.1997 51.2055 74.582 50.6234C76.0166 50.0206 77.7133 48.995 78.8401 48.0457C82.0435 45.3432 83.7861 42.8555 84.8605 39.4324C86.5047 34.2006 85.4631 28.858 82.1418 25.4834C80.5958 23.9104 78.7484 22.9957 76.4948 22.677C75.8987 22.5938 74.713 22.6008 74.0579 22.6839ZM77.0189 27.68C77.864 27.9849 78.316 28.269 78.9253 28.8788C79.5411 29.4956 79.9014 30.0291 80.3075 30.93C80.8709 32.1842 81.074 33.3275 81.015 34.9075C80.8971 38.1089 79.4886 41.0469 76.9665 43.3752C75.5384 44.6918 74.8309 45.2115 73.6124 45.8213C71.693 46.7915 70.0945 46.9578 68.4109 46.3688C68.031 46.2371 67.9 46.147 67.5069 45.7243C67.258 45.4541 66.9697 45.0729 66.8715 44.8789C66.6291 44.4077 66.4915 43.4792 66.4456 42.0794C66.3474 38.7533 67.2776 35.1015 69.0398 31.9486C70.1666 29.9321 71.8437 28.3106 73.4093 27.7285C74.1693 27.4514 74.5427 27.389 75.4663 27.4167C76.2787 27.4306 76.4031 27.4583 77.0189 27.68Z" fill="#281E32"/>
<path d="M42.2525 31.4106C40.2414 32.1451 38.5971 33.2192 36.0226 35.499C32.7274 38.4093 29.0327 42.8442 26.2878 47.1959C24.0015 50.82 22.0166 54.742 20.4116 58.8166C17.5947 65.9816 16.5334 71.7885 17.2999 75.7798C17.706 77.8725 18.7214 79.9652 20.2347 81.8015C21.3877 83.2013 23.6871 84.802 25.3641 85.3702C26.5433 85.7721 27.1198 85.8622 28.5282 85.8622C29.6288 85.8622 29.9564 85.8345 30.5721 85.7028C34.3259 84.899 37.9551 82.5291 42.056 78.2051C43.15 77.0479 44.4078 75.9115 45.2398 75.3156C45.456 75.1631 45.9801 74.8236 46.4124 74.5672C47.3885 73.9851 48.0698 73.4862 48.8363 72.814C52.4262 69.6265 55.3218 65.351 56.5664 61.4151C57.5294 58.38 57.2477 55.4904 55.8 53.4393C54.8304 52.0742 53.3696 50.9932 51.7515 50.4527C50.8212 50.1478 50.3234 50.0577 49.2883 50.0231C47.4475 49.9538 46.0718 50.3349 44.7092 51.2842C44.3227 51.5545 43.2548 52.6216 42.9863 53.0027L42.8487 53.1968L42.0757 52.3722C40.9424 51.1595 40.1169 50.6398 38.6561 50.224C38.0861 50.0647 37.9092 50.0439 36.7497 50.0439C35.7474 50.0369 35.3544 50.0647 34.922 50.1617C33.1336 50.5705 31.8299 51.2773 30.6442 52.483C29.7467 53.3977 29.1309 54.4371 28.8034 55.6151C28.0697 58.2137 28.62 61.2488 30.4739 64.7551C32.0199 67.6932 33.9721 70.2155 36.5859 72.6408C37.3066 73.313 37.5293 73.7218 37.5817 74.484C37.6276 75.1215 37.5293 75.6135 37.2214 76.2649C36.9921 76.7569 36.9266 76.8262 36.0946 77.533C34.2669 79.0852 32.5833 80.1246 30.9783 80.6859C28.6134 81.5105 26.9953 81.2957 25.0169 79.9029C23.8377 79.0713 22.9534 77.9903 22.3048 76.5767C21.5973 75.0453 21.4204 73.6664 21.6497 71.3796C21.9052 68.8643 22.5275 66.3558 23.7788 62.7871C25.3641 58.2968 27.5063 53.8412 29.9564 49.9677C32.485 45.9694 35.6623 42.1097 38.6495 39.4072C40.4117 37.8065 42.4098 36.3513 42.8225 36.3513C43.1107 36.3513 44.4078 37.2313 45.7573 38.34C49.6748 41.5622 53.933 46.8009 57.0054 52.1851C59.8354 57.1327 62.2986 63.2168 63.4122 67.9842C64.0346 70.6382 64.2245 73.3199 63.9101 74.8444C63.4974 76.84 62.2592 78.7387 60.6281 79.8821C58.6431 81.2749 57.0447 81.5036 54.7453 80.7205C53.7364 80.381 53.3041 79.9375 53.0027 78.9327C52.459 77.1449 51.1881 75.8769 49.4586 75.4264C49.0001 75.3017 48.7773 75.2809 48.1484 75.3086C46.8382 75.371 45.849 75.8353 44.8991 76.8539C44.4668 77.3112 44.3096 77.5399 44.0606 78.0735C43.8968 78.4338 43.7069 78.9258 43.6479 79.1753C43.4972 79.792 43.4972 81.067 43.6545 81.6699C44.1196 83.4785 45.3905 84.8505 47.0675 85.3563C47.4802 85.4741 47.7619 85.5088 48.3777 85.5088C49.2555 85.5088 49.5438 85.4395 50.5592 84.9821C51.4239 84.5941 51.7056 84.5802 52.4393 84.8782C53.2451 85.2108 54.2015 85.5157 55.027 85.7028C55.6165 85.8345 55.9113 85.8553 57.0905 85.8553C58.2631 85.8553 58.5579 85.8345 59.1017 85.7097C61.6107 85.1138 64.1197 83.4715 65.7247 81.3719C68.2665 78.0458 69.0133 74.7058 68.3255 69.7166C67.5721 64.2631 64.6438 56.4051 60.9359 49.8637C57.6408 44.043 53.232 38.5618 48.9018 34.8822C46.8775 33.1707 45.2594 32.1243 43.8117 31.6046C43.1697 31.3759 42.5604 31.2997 42.2525 31.4106ZM37.5162 54.2986C38.3744 54.6173 38.8788 55.0746 40.1497 56.6754C40.9948 57.7563 41.6892 58.4632 42.1346 58.7126C42.4884 58.9205 43.0845 58.9274 43.4645 58.7334C43.8706 58.5255 44.7223 57.6593 45.5215 56.6268C46.7138 55.1024 47.3623 54.5342 48.2074 54.2708C48.9477 54.0422 50.0024 54.1877 50.6837 54.6173C51.1553 54.9222 51.4108 55.1786 51.817 55.7537C52.4524 56.6684 52.649 57.3198 52.59 58.3731C52.4983 59.9668 50.8867 63.2791 48.9477 65.8707C48.3253 66.6953 46.1831 68.9682 45.528 69.4879C44.7616 70.0977 44.0213 70.5481 43.4055 70.756L42.8356 70.95L42.4294 70.8322C41.283 70.4996 40.0318 69.5641 38.3809 67.8179C37.1166 66.4736 36.3567 65.5173 35.5378 64.2077C34.4896 62.5377 33.9394 61.422 33.3694 59.8075C33.0615 58.9274 33.055 58.8858 33.055 58.1097C33.0484 57.1535 33.1401 56.8278 33.6184 56.0517C34.4176 54.7559 35.3478 54.1738 36.6384 54.1669C36.9856 54.16 37.2607 54.2015 37.5162 54.2986Z" fill="#281E32"/>
<path d="M107.658 33.0106H115.299L123.369 52.7003H123.713L131.783 33.0106H139.424V62.3162H133.415V43.2418H133.171L125.587 62.1731H121.495L113.911 43.1702H113.668V62.3162H107.658V33.0106ZM154.431 62.7454C152.171 62.7454 150.224 62.2875 148.593 61.3717C146.971 60.4464 145.722 59.1395 144.844 57.451C143.966 55.7529 143.528 53.7448 143.528 51.4267C143.528 49.1658 143.966 47.1816 144.844 45.474C145.722 43.7664 146.957 42.4357 148.55 41.4817C150.153 40.5278 152.032 40.0508 154.188 40.0508C155.638 40.0508 156.988 40.2845 158.238 40.7519C159.497 41.2098 160.594 41.9015 161.529 42.8268C162.473 43.7521 163.208 44.916 163.732 46.3183C164.257 47.7111 164.52 49.3423 164.52 51.2121V52.8863H145.96V49.1086H158.781C158.781 48.231 158.591 47.4535 158.209 46.7762C157.827 46.0989 157.298 45.5694 156.621 45.1878C155.953 44.7967 155.175 44.6012 154.288 44.6012C153.363 44.6012 152.543 44.8158 151.827 45.2451C151.121 45.6648 150.568 46.2324 150.167 46.9479C149.767 47.6538 149.561 48.4408 149.552 49.3089V52.9006C149.552 53.9881 149.752 54.9278 150.153 55.7195C150.563 56.5113 151.14 57.1219 151.884 57.5511C152.628 57.9804 153.511 58.1951 154.532 58.1951C155.209 58.1951 155.829 58.0997 156.392 57.9089C156.955 57.7181 157.436 57.4319 157.837 57.0503C158.238 56.6687 158.543 56.2013 158.753 55.648L164.391 56.02C164.105 57.3747 163.518 58.5576 162.631 59.5688C161.753 60.5704 160.618 61.3527 159.225 61.9155C157.842 62.4688 156.244 62.7454 154.431 62.7454ZM151.856 37.5037L154.889 30.9929H160.527L156.163 37.5037H151.856ZM176.597 62.6739C174.927 62.6739 173.415 62.2446 172.061 61.3861C170.715 60.518 169.647 59.2444 168.855 57.5654C168.073 55.8769 167.682 53.8069 167.682 51.3552C167.682 48.8367 168.087 46.7428 168.898 45.0734C169.709 43.3944 170.787 42.1399 172.132 41.31C173.487 40.4705 174.97 40.0508 176.582 40.0508C177.813 40.0508 178.838 40.2606 179.659 40.6804C180.489 41.0906 181.157 41.6057 181.662 42.2258C182.177 42.8363 182.568 43.4373 182.836 44.0288H183.022V33.0106H189.103V62.3162H183.093V58.7961H182.836C182.549 59.4066 182.144 60.0124 181.619 60.6133C181.104 61.2048 180.432 61.6961 179.602 62.0872C178.781 62.4783 177.78 62.6739 176.597 62.6739ZM178.528 57.823C179.511 57.823 180.341 57.5559 181.018 57.0217C181.705 56.4779 182.23 55.7195 182.592 54.7465C182.964 53.7735 183.15 52.6335 183.15 51.3266C183.15 50.0196 182.969 48.8844 182.607 47.9209C182.244 46.9574 181.719 46.2133 181.033 45.6887C180.346 45.164 179.511 44.9017 178.528 44.9017C177.527 44.9017 176.682 45.1735 175.996 45.7173C175.309 46.261 174.789 47.0147 174.436 47.9782C174.083 48.9417 173.906 50.0578 173.906 51.3266C173.906 52.6049 174.083 53.7353 174.436 54.7179C174.798 55.6909 175.318 56.4541 175.996 57.0074C176.682 57.5511 177.527 57.823 178.528 57.823ZM194.115 62.3162V40.337H200.211V62.3162H194.115ZM197.177 37.5037C196.271 37.5037 195.493 37.2032 194.845 36.6022C194.205 35.9917 193.886 35.2619 193.886 34.4129C193.886 33.5734 194.205 32.8532 194.845 32.2522C195.493 31.6416 196.271 31.3364 197.177 31.3364C198.083 31.3364 198.856 31.6416 199.495 32.2522C200.144 32.8532 200.468 33.5734 200.468 34.4129C200.468 35.2619 200.144 35.9917 199.495 36.6022C198.856 37.2032 198.083 37.5037 197.177 37.5037ZM211.361 62.7311C209.959 62.7311 208.709 62.4879 207.612 62.0014C206.515 61.5053 205.647 60.7755 205.008 59.812C204.378 58.839 204.063 57.6275 204.063 56.1774C204.063 54.9564 204.288 53.9309 204.736 53.1009C205.184 52.271 205.795 51.6032 206.568 51.0976C207.34 50.592 208.218 50.2104 209.201 49.9529C210.193 49.6953 211.232 49.514 212.32 49.4091C213.598 49.2756 214.629 49.1515 215.411 49.0371C216.193 48.913 216.761 48.7318 217.114 48.4933C217.467 48.2548 217.643 47.9019 217.643 47.4344V47.3486C217.643 46.4423 217.357 45.7411 216.784 45.2451C216.222 44.749 215.42 44.501 214.381 44.501C213.283 44.501 212.411 44.7443 211.762 45.2308C211.113 45.7077 210.684 46.3087 210.474 47.0338L204.836 46.5759C205.122 45.2403 205.685 44.086 206.525 43.113C207.364 42.1304 208.447 41.3768 209.773 40.8521C211.108 40.3179 212.654 40.0508 214.409 40.0508C215.63 40.0508 216.799 40.1939 217.915 40.4801C219.041 40.7662 220.037 41.2098 220.906 41.8108C221.783 42.4118 222.475 43.1845 222.98 44.1289C223.486 45.0638 223.739 46.1847 223.739 47.4917V62.3162H217.958V59.2683H217.786C217.433 59.9551 216.961 60.5609 216.37 61.0856C215.778 61.6007 215.067 62.0061 214.237 62.3019C213.407 62.588 212.449 62.7311 211.361 62.7311ZM213.107 58.5242C214.004 58.5242 214.795 58.3477 215.482 57.9947C216.169 57.6322 216.708 57.1457 217.099 56.5352C217.49 55.9246 217.686 55.233 217.686 54.4603V52.1279C217.495 52.2519 217.233 52.3664 216.899 52.4713C216.575 52.5667 216.207 52.6573 215.797 52.7432C215.387 52.8195 214.977 52.8911 214.567 52.9578C214.156 53.0151 213.784 53.0675 213.45 53.1152C212.735 53.2202 212.11 53.3871 211.576 53.6161C211.042 53.845 210.627 54.155 210.331 54.5462C210.035 54.9278 209.887 55.4047 209.887 55.9771C209.887 56.8071 210.188 57.4414 210.789 57.8803C211.399 58.3095 212.172 58.5242 213.107 58.5242ZM240.159 40.337V44.916H226.923V40.337H240.159ZM229.928 35.0711H236.023V55.5621C236.023 56.125 236.109 56.5638 236.281 56.8786C236.453 57.1839 236.691 57.3985 236.996 57.5225C237.311 57.6465 237.674 57.7085 238.084 57.7085C238.37 57.7085 238.656 57.6847 238.943 57.637C239.229 57.5798 239.448 57.5368 239.601 57.5082L240.56 62.0443C240.254 62.1397 239.825 62.2494 239.272 62.3734C238.718 62.507 238.046 62.588 237.254 62.6167C235.785 62.6739 234.497 62.4783 233.391 62.03C232.293 61.5816 231.44 60.8852 230.829 59.9408C230.219 58.9964 229.918 57.8039 229.928 56.3635V35.0711ZM244.13 62.3162V40.337H250.226V62.3162H244.13ZM247.192 37.5037C246.286 37.5037 245.508 37.2032 244.859 36.6022C244.22 35.9917 243.901 35.2619 243.901 34.4129C243.901 33.5734 244.22 32.8532 244.859 32.2522C245.508 31.6416 246.286 31.3364 247.192 31.3364C248.098 31.3364 248.871 31.6416 249.51 32.2522C250.159 32.8532 250.483 33.5734 250.483 34.4129C250.483 35.2619 250.159 35.9917 249.51 36.6022C248.871 37.2032 248.098 37.5037 247.192 37.5037ZM265.039 62.7454C262.817 62.7454 260.894 62.2732 259.273 61.3288C257.66 60.3749 256.415 59.0489 255.538 57.3508C254.66 55.6432 254.221 53.6638 254.221 51.4124C254.221 49.142 254.66 47.1578 255.538 45.4597C256.415 43.7521 257.66 42.4261 259.273 41.4817C260.894 40.5278 262.817 40.0508 265.039 40.0508C267.262 40.0508 269.179 40.5278 270.792 41.4817C272.413 42.4261 273.663 43.7521 274.541 45.4597C275.418 47.1578 275.857 49.142 275.857 51.4124C275.857 53.6638 275.418 55.6432 274.541 57.3508C273.663 59.0489 272.413 60.3749 270.792 61.3288C269.179 62.2732 267.262 62.7454 265.039 62.7454ZM265.068 58.0233C266.079 58.0233 266.923 57.7372 267.601 57.1648C268.278 56.5829 268.788 55.7911 269.132 54.7894C269.485 53.7878 269.661 52.6478 269.661 51.3695C269.661 50.0912 269.485 48.9512 269.132 47.9496C268.788 46.9479 268.278 46.1561 267.601 45.5742C266.923 44.9923 266.079 44.7013 265.068 44.7013C264.047 44.7013 263.189 44.9923 262.492 45.5742C261.805 46.1561 261.285 46.9479 260.932 47.9496C260.589 48.9512 260.417 50.0912 260.417 51.3695C260.417 52.6478 260.589 53.7878 260.932 54.7894C261.285 55.7911 261.805 56.5829 262.492 57.1648C263.189 57.7372 264.047 58.0233 265.068 58.0233ZM285.917 49.6094V62.3162H279.821V40.337H285.63V44.2148H285.888C286.375 42.9365 287.19 41.9253 288.335 41.1812C289.48 40.4276 290.868 40.0508 292.499 40.0508C294.025 40.0508 295.356 40.3847 296.491 41.0524C297.627 41.7202 298.509 42.6742 299.139 43.9143C299.768 45.1449 300.083 46.614 300.083 48.3216V62.3162H293.987V49.4091C293.997 48.064 293.653 47.0147 292.957 46.261C292.26 45.4979 291.302 45.1163 290.081 45.1163C289.26 45.1163 288.535 45.2928 287.906 45.6457C287.286 45.9987 286.799 46.5138 286.446 47.1912C286.103 47.8589 285.926 48.665 285.917 49.6094ZM319.379 62.3162H312.74L322.856 33.0106H330.841L340.943 62.3162H334.304L326.963 39.7074H326.734L319.379 62.3162ZM318.964 50.7971H334.647V55.6337H318.964V50.7971ZM350.452 49.6094V62.3162H344.356V40.337H350.166V44.2148H350.423C350.91 42.9365 351.725 41.9253 352.87 41.1812C354.015 40.4276 355.403 40.0508 357.034 40.0508C358.561 40.0508 359.891 40.3847 361.027 41.0524C362.162 41.7202 363.044 42.6742 363.674 43.9143C364.303 45.1449 364.618 46.614 364.618 48.3216V62.3162H358.522V49.4091C358.532 48.064 358.189 47.0147 357.492 46.261C356.796 45.4979 355.837 45.1163 354.616 45.1163C353.796 45.1163 353.071 45.2928 352.441 45.6457C351.821 45.9987 351.334 46.5138 350.981 47.1912C350.638 47.8589 350.461 48.665 350.452 49.6094ZM369.423 62.3162V40.337H375.518V62.3162H369.423ZM372.485 37.5037C371.579 37.5037 370.801 37.2032 370.152 36.6022C369.513 35.9917 369.194 35.2619 369.194 34.4129C369.194 33.5734 369.513 32.8532 370.152 32.2522C370.801 31.6416 371.579 31.3364 372.485 31.3364C373.391 31.3364 374.164 31.6416 374.803 32.2522C375.452 32.8532 375.776 33.5734 375.776 34.4129C375.776 35.2619 375.452 35.9917 374.803 36.6022C374.164 37.2032 373.391 37.5037 372.485 37.5037ZM380.401 62.3162V40.337H386.211V44.2148H386.469C386.927 42.927 387.69 41.911 388.758 41.1669C389.827 40.4228 391.105 40.0508 392.593 40.0508C394.1 40.0508 395.383 40.4276 396.442 41.1812C397.501 41.9253 398.207 42.9365 398.56 44.2148H398.789C399.237 42.9556 400.048 41.9492 401.222 41.1955C402.405 40.4324 403.802 40.0508 405.414 40.0508C407.465 40.0508 409.13 40.7042 410.408 42.0112C411.696 43.3085 412.34 45.1497 412.34 47.5346V62.3162H406.259V48.7366C406.259 47.5155 405.934 46.5997 405.285 45.9892C404.637 45.3786 403.826 45.0734 402.853 45.0734C401.746 45.0734 400.883 45.4263 400.263 46.1323C399.643 46.8286 399.333 47.7492 399.333 48.894V62.3162H393.423V48.6078C393.423 47.5298 393.113 46.6712 392.493 46.0321C391.882 45.3929 391.076 45.0734 390.075 45.0734C389.397 45.0734 388.787 45.2451 388.243 45.5885C387.709 45.9224 387.284 46.3946 386.969 47.0051C386.655 47.6061 386.497 48.3121 386.497 49.1229V62.3162H380.401ZM423.423 62.7311C422.02 62.7311 420.771 62.4879 419.674 62.0014C418.576 61.5053 417.708 60.7755 417.069 59.812C416.44 58.839 416.125 57.6275 416.125 56.1774C416.125 54.9564 416.349 53.9309 416.797 53.1009C417.246 52.271 417.856 51.6032 418.629 51.0976C419.402 50.592 420.279 50.2104 421.262 49.9529C422.254 49.6953 423.294 49.514 424.381 49.4091C425.66 49.2756 426.69 49.1515 427.472 49.0371C428.254 48.913 428.822 48.7318 429.175 48.4933C429.528 48.2548 429.704 47.9019 429.704 47.4344V47.3486C429.704 46.4423 429.418 45.7411 428.846 45.2451C428.283 44.749 427.482 44.501 426.442 44.501C425.345 44.501 424.472 44.7443 423.823 45.2308C423.175 45.7077 422.745 46.3087 422.535 47.0338L416.897 46.5759C417.184 45.2403 417.747 44.086 418.586 43.113C419.425 42.1304 420.508 41.3768 421.834 40.8521C423.17 40.3179 424.715 40.0508 426.47 40.0508C427.692 40.0508 428.86 40.1939 429.976 40.4801C431.102 40.7662 432.099 41.2098 432.967 41.8108C433.845 42.4118 434.536 43.1845 435.042 44.1289C435.547 45.0638 435.8 46.1847 435.8 47.4917V62.3162H430.019V59.2683H429.847C429.495 59.9551 429.022 60.5609 428.431 61.0856C427.839 61.6007 427.129 62.0061 426.299 62.3019C425.469 62.588 424.51 62.7311 423.423 62.7311ZM425.168 58.5242C426.065 58.5242 426.857 58.3477 427.544 57.9947C428.231 57.6322 428.77 57.1457 429.161 56.5352C429.552 55.9246 429.747 55.233 429.747 54.4603V52.1279C429.557 52.2519 429.294 52.3664 428.96 52.4713C428.636 52.5667 428.269 52.6573 427.858 52.7432C427.448 52.8195 427.038 52.8911 426.628 52.9578C426.218 53.0151 425.846 53.0675 425.512 53.1152C424.796 53.2202 424.171 53.3871 423.637 53.6161C423.103 53.845 422.688 54.155 422.392 54.5462C422.097 54.9278 421.949 55.4047 421.949 55.9771C421.949 56.8071 422.249 57.4414 422.85 57.8803C423.461 58.3095 424.233 58.5242 425.168 58.5242ZM446.625 33.0106V62.3162H440.529V33.0106H446.625ZM460.949 62.3162V33.0106H467.145V45.102H479.723V33.0106H485.904V62.3162H479.723V50.2104H467.145V62.3162H460.949ZM497.166 62.7311C495.764 62.7311 494.514 62.4879 493.417 62.0014C492.32 61.5053 491.452 60.7755 490.813 59.812C490.183 58.839 489.868 57.6275 489.868 56.1774C489.868 54.9564 490.092 53.9309 490.541 53.1009C490.989 52.271 491.6 51.6032 492.372 51.0976C493.145 50.592 494.023 50.2104 495.005 49.9529C495.997 49.6953 497.037 49.514 498.125 49.4091C499.403 49.2756 500.433 49.1515 501.216 49.0371C501.998 48.913 502.565 48.7318 502.918 48.4933C503.271 48.2548 503.448 47.9019 503.448 47.4344V47.3486C503.448 46.4423 503.162 45.7411 502.589 45.2451C502.026 44.749 501.225 44.501 500.185 44.501C499.088 44.501 498.215 44.7443 497.567 45.2308C496.918 45.7077 496.489 46.3087 496.279 47.0338L490.641 46.5759C490.927 45.2403 491.49 44.086 492.329 43.113C493.169 42.1304 494.252 41.3768 495.578 40.8521C496.913 40.3179 498.459 40.0508 500.214 40.0508C501.435 40.0508 502.604 40.1939 503.72 40.4801C504.845 40.7662 505.842 41.2098 506.71 41.8108C507.588 42.4118 508.28 43.1845 508.785 44.1289C509.291 45.0638 509.544 46.1847 509.544 47.4917V62.3162H503.763V59.2683H503.591C503.238 59.9551 502.766 60.5609 502.174 61.0856C501.583 61.6007 500.872 62.0061 500.042 62.3019C499.212 62.588 498.253 62.7311 497.166 62.7311ZM498.912 58.5242C499.808 58.5242 500.6 58.3477 501.287 57.9947C501.974 57.6322 502.513 57.1457 502.904 56.5352C503.295 55.9246 503.491 55.233 503.491 54.4603V52.1279C503.3 52.2519 503.038 52.3664 502.704 52.4713C502.379 52.5667 502.012 52.6573 501.602 52.7432C501.192 52.8195 500.781 52.8911 500.371 52.9578C499.961 53.0151 499.589 53.0675 499.255 53.1152C498.54 53.2202 497.915 53.3871 497.381 53.6161C496.846 53.845 496.431 54.155 496.136 54.5462C495.84 54.9278 495.692 55.4047 495.692 55.9771C495.692 56.8071 495.993 57.4414 496.594 57.8803C497.204 58.3095 497.977 58.5242 498.912 58.5242ZM520.369 49.6094V62.3162H514.273V40.337H520.082V44.2148H520.34C520.826 42.9365 521.642 41.9253 522.787 41.1812C523.932 40.4276 525.32 40.0508 526.951 40.0508C528.477 40.0508 529.808 40.3847 530.943 41.0524C532.078 41.7202 532.961 42.6742 533.59 43.9143C534.22 45.1449 534.535 46.614 534.535 48.3216V62.3162H528.439V49.4091C528.449 48.064 528.105 47.0147 527.409 46.261C526.712 45.4979 525.754 45.1163 524.533 45.1163C523.712 45.1163 522.987 45.2928 522.358 45.6457C521.738 45.9987 521.251 46.5138 520.898 47.1912C520.555 47.8589 520.378 48.665 520.369 49.6094ZM547.438 62.6739C545.769 62.6739 544.257 62.2446 542.902 61.3861C541.557 60.518 540.489 59.2444 539.697 57.5654C538.915 55.8769 538.524 53.8069 538.524 51.3552C538.524 48.8367 538.929 46.7428 539.74 45.0734C540.551 43.3944 541.629 42.1399 542.974 41.31C544.328 40.4705 545.812 40.0508 547.424 40.0508C548.655 40.0508 549.68 40.2606 550.501 40.6804C551.33 41.0906 551.998 41.6057 552.504 42.2258C553.019 42.8363 553.41 43.4373 553.677 44.0288H553.863V33.0106H559.945V62.3162H553.935V58.7961H553.677C553.391 59.4066 552.986 60.0124 552.461 60.6133C551.946 61.2048 551.273 61.6961 550.443 62.0872C549.623 62.4783 548.621 62.6739 547.438 62.6739ZM549.37 57.823C550.353 57.823 551.183 57.5559 551.86 57.0217C552.547 56.4779 553.071 55.7195 553.434 54.7465C553.806 53.7735 553.992 52.6335 553.992 51.3266C553.992 50.0196 553.811 48.8844 553.448 47.9209C553.086 46.9574 552.561 46.2133 551.874 45.6887C551.187 45.164 550.353 44.9017 549.37 44.9017C548.368 44.9017 547.524 45.1735 546.837 45.7173C546.151 46.261 545.631 47.0147 545.278 47.9782C544.925 48.9417 544.748 50.0578 544.748 51.3266C544.748 52.6049 544.925 53.7353 545.278 54.7179C545.64 55.6909 546.16 56.4541 546.837 57.0074C547.524 57.5511 548.368 57.823 549.37 57.823ZM564.957 62.3162V40.337H571.052V62.3162H564.957ZM568.019 37.5037C567.113 37.5037 566.335 37.2032 565.686 36.6022C565.047 35.9917 564.728 35.2619 564.728 34.4129C564.728 33.5734 565.047 32.8532 565.686 32.2522C566.335 31.6416 567.113 31.3364 568.019 31.3364C568.925 31.3364 569.698 31.6416 570.337 32.2522C570.986 32.8532 571.31 33.5734 571.31 34.4129C571.31 35.2619 570.986 35.9917 570.337 36.6022C569.698 37.2032 568.925 37.5037 568.019 37.5037ZM585.866 62.7454C583.615 62.7454 581.678 62.2685 580.057 61.3145C578.444 60.351 577.204 59.0155 576.336 57.3079C575.478 55.6003 575.048 53.6351 575.048 51.4124C575.048 49.1611 575.482 47.1864 576.35 45.4883C577.228 43.7808 578.473 42.45 580.085 41.496C581.697 40.5325 583.615 40.0508 585.838 40.0508C587.755 40.0508 589.434 40.399 590.874 41.0954C592.315 41.7917 593.455 42.7696 594.294 44.0288C595.134 45.288 595.597 46.7666 595.682 48.4647H589.93C589.768 47.3676 589.339 46.4852 588.642 45.8175C587.955 45.1401 587.054 44.8015 585.938 44.8015C584.993 44.8015 584.168 45.0591 583.462 45.5742C582.766 46.0798 582.222 46.8191 581.831 47.7921C581.44 48.7652 581.244 49.9433 581.244 51.3266C581.244 52.7289 581.435 53.9213 581.817 54.9039C582.208 55.8865 582.756 56.6353 583.462 57.1505C584.168 57.6656 584.993 57.9232 585.938 57.9232C586.634 57.9232 587.259 57.7801 587.812 57.4939C588.375 57.2077 588.838 56.7927 589.2 56.249C589.572 55.6957 589.816 55.0327 589.93 54.26H595.682C595.587 55.939 595.129 57.4176 594.309 58.6959C593.498 59.9647 592.377 60.9568 590.946 61.6722C589.515 62.3877 587.822 62.7454 585.866 62.7454ZM605.853 62.7311C604.45 62.7311 603.201 62.4879 602.104 62.0014C601.007 61.5053 600.139 60.7755 599.499 59.812C598.87 58.839 598.555 57.6275 598.555 56.1774C598.555 54.9564 598.779 53.9309 599.228 53.1009C599.676 52.271 600.286 51.6032 601.059 51.0976C601.832 50.592 602.71 50.2104 603.692 49.9529C604.684 49.6953 605.724 49.514 606.812 49.4091C608.09 49.2756 609.12 49.1515 609.902 49.0371C610.685 48.913 611.252 48.7318 611.605 48.4933C611.958 48.2548 612.135 47.9019 612.135 47.4344V47.3486C612.135 46.4423 611.848 45.7411 611.276 45.2451C610.713 44.749 609.912 44.501 608.872 44.501C607.775 44.501 606.902 44.7443 606.253 45.2308C605.605 45.7077 605.175 46.3087 604.966 47.0338L599.328 46.5759C599.614 45.2403 600.177 44.086 601.016 43.113C601.856 42.1304 602.938 41.3768 604.264 40.8521C605.6 40.3179 607.145 40.0508 608.901 40.0508C610.122 40.0508 611.29 40.1939 612.407 40.4801C613.532 40.7662 614.529 41.2098 615.397 41.8108C616.275 42.4118 616.966 43.1845 617.472 44.1289C617.978 45.0638 618.23 46.1847 618.23 47.4917V62.3162H612.449V59.2683H612.278C611.925 59.9551 611.453 60.5609 610.861 61.0856C610.27 61.6007 609.559 62.0061 608.729 62.3019C607.899 62.588 606.94 62.7311 605.853 62.7311ZM607.599 58.5242C608.495 58.5242 609.287 58.3477 609.974 57.9947C610.661 57.6322 611.2 57.1457 611.591 56.5352C611.982 55.9246 612.178 55.233 612.178 54.4603V52.1279C611.987 52.2519 611.724 52.3664 611.391 52.4713C611.066 52.5667 610.699 52.6573 610.289 52.7432C609.879 52.8195 609.468 52.8911 609.058 52.9578C608.648 53.0151 608.276 53.0675 607.942 53.1152C607.227 53.2202 606.602 53.3871 606.067 53.6161C605.533 53.845 605.118 54.155 604.823 54.5462C604.527 54.9278 604.379 55.4047 604.379 55.9771C604.379 56.8071 604.679 57.4414 605.28 57.8803C605.891 58.3095 606.664 58.5242 607.599 58.5242ZM622.96 70.5584V40.337H628.97V44.0288H629.241C629.509 43.4373 629.895 42.8363 630.401 42.2258C630.916 41.6057 631.583 41.0906 632.404 40.6804C633.234 40.2606 634.264 40.0508 635.495 40.0508C637.097 40.0508 638.576 40.4705 639.931 41.31C641.285 42.1399 642.368 43.3944 643.179 45.0734C643.99 46.7428 644.395 48.8367 644.395 51.3552C644.395 53.8069 643.999 55.8769 643.207 57.5654C642.425 59.2444 641.357 60.518 640.002 61.3861C638.657 62.2446 637.15 62.6739 635.48 62.6739C634.297 62.6739 633.291 62.4783 632.461 62.0872C631.641 61.6961 630.968 61.2048 630.443 60.6133C629.919 60.0124 629.518 59.4066 629.241 58.7961H629.055V70.5584H622.96ZM628.927 51.3266C628.927 52.6335 629.108 53.7735 629.47 54.7465C629.833 55.7195 630.358 56.4779 631.044 57.0217C631.731 57.5559 632.566 57.823 633.549 57.823C634.541 57.823 635.38 57.5511 636.067 57.0074C636.754 56.4541 637.274 55.6909 637.627 54.7179C637.989 53.7353 638.171 52.6049 638.171 51.3266C638.171 50.0578 637.994 48.9417 637.641 47.9782C637.288 47.0147 636.768 46.261 636.081 45.7173C635.395 45.1735 634.55 44.9017 633.549 44.9017C632.556 44.9017 631.717 45.164 631.03 45.6887C630.353 46.2133 629.833 46.9574 629.47 47.9209C629.108 48.8844 628.927 50.0196 628.927 51.3266Z" fill="black"/>
</svg>
